<?xml version="1.0" encoding="UTF-8" standalone="no"?><svg xmlns="http://www.w3.org/2000/svg" xmlns:xlink="http://www.w3.org/1999/xlink" contentScriptType="application/ecmascript" contentStyleType="text/css" height="78px" preserveAspectRatio="none" style="width:485px;height:78px;" version="1.1" viewBox="0 0 485 78" width="485px" zoomAndPan="magnify"><defs><filter height="300%" id="f1hwzz14d64wf1" width="300%" x="-1" y="-1"><feGaussianBlur result="blurOut" stdDeviation="2.0"/><feColorMatrix in="blurOut" result="blurOut2" type="matrix" values="0 0 0 0 0 0 0 0 0 0 0 0 0 0 0 0 0 0 .4 0"/><feOffset dx="4.0" dy="4.0" in="blurOut2" result="blurOut3"/><feBlend in="SourceGraphic" in2="blurOut3" mode="normal"/></filter></defs><g><!--MD5=[d1eea05bb1da46d47861789f22536243]
class MapMatrixGenerator--><rect fill="#FEFECE" filter="url(#f1hwzz14d64wf1)" height="60.8047" id="MapMatrixGenerator" style="stroke: #A80036; stroke-width: 1.5;" width="467" x="7" y="7"/><ellipse cx="172.75" cy="23" fill="#ADD1B2" rx="11" ry="11" style="stroke: #A80036; stroke-width: 1.0;"/><path d="M175.7188,28.6406 Q175.1406,28.9375 174.5,29.0781 Q173.8594,29.2344 173.1563,29.2344 Q170.6563,29.2344 169.3281,27.5938 Q168.0156,25.9375 168.0156,22.8125 Q168.0156,19.6875 169.3281,18.0313 Q170.6563,16.375 173.1563,16.375 Q173.8594,16.375 174.5,16.5313 Q175.1563,16.6875 175.7188,16.9844 L175.7188,19.7031 Q175.0938,19.125 174.5,18.8594 Q173.9063,18.5781 173.2813,18.5781 Q171.9375,18.5781 171.25,19.6563 Q170.5625,20.7188 170.5625,22.8125 Q170.5625,24.9063 171.25,25.9844 Q171.9375,27.0469 173.2813,27.0469 Q173.9063,27.0469 174.5,26.7813 Q175.0938,26.5 175.7188,25.9219 L175.7188,28.6406 Z "/><text fill="#000000" font-family="sans-serif" font-size="12" lengthAdjust="spacingAndGlyphs" textLength="127" x="193.25" y="27.1543">MapMatrixGenerator</text><line style="stroke: #A80036; stroke-width: 1.5;" x1="8" x2="473" y1="39" y2="39"/><line style="stroke: #A80036; stroke-width: 1.5;" x1="8" x2="473" y1="47" y2="47"/><ellipse cx="18" cy="58" fill="#84BE84" rx="3" ry="3" style="stroke: #038048; stroke-width: 1.0;"/><text fill="#000000" font-family="sans-serif" font-size="11" lengthAdjust="spacingAndGlyphs" textLength="441" x="27" y="61.2104">GetMapMatrix(mapSize:(int x, int y), randomFillPercent:int) : List&lt;List&lt;bool&gt;&gt;</text><!--MD5=[880ea60f56552dce921e7db847849302]
@startuml
class MapMatrixGenerator {
    + GetMapMatrix(mapSize:(int x, int y), randomFillPercent:int) : List<List<bool>>
}
@enduml

PlantUML version 1.2020.02(Sun Mar 01 10:22:07 GMT 2020)
(GPL source distribution)
Java Runtime: OpenJDK Runtime Environment
JVM: OpenJDK 64-Bit Server VM
Java Version: 11.0.9+11-Ubuntu-0ubuntu1
Operating System: Linux
Default Encoding: ANSI_X3.4-1968
Language: en
Country: US
--></g></svg>