<?xml version="1.0" encoding="UTF-8" standalone="no"?><svg xmlns="http://www.w3.org/2000/svg" xmlns:xlink="http://www.w3.org/1999/xlink" contentScriptType="application/ecmascript" contentStyleType="text/css" height="117px" preserveAspectRatio="none" style="width:300px;height:117px;" version="1.1" viewBox="0 0 300 117" width="300px" zoomAndPan="magnify"><defs><filter height="300%" id="f17phpzayouo2t" width="300%" x="-1" y="-1"><feGaussianBlur result="blurOut" stdDeviation="2.0"/><feColorMatrix in="blurOut" result="blurOut2" type="matrix" values="0 0 0 0 0 0 0 0 0 0 0 0 0 0 0 0 0 0 .4 0"/><feOffset dx="4.0" dy="4.0" in="blurOut2" result="blurOut3"/><feBlend in="SourceGraphic" in2="blurOut3" mode="normal"/></filter></defs><g><!--MD5=[87ab3218f50fb1d6ababd1b214ad5b9e]
class SpawnLocation--><rect fill="#FEFECE" filter="url(#f17phpzayouo2t)" height="99.2188" id="SpawnLocation" style="stroke: #A80036; stroke-width: 1.5;" width="282" x="7" y="7"/><ellipse cx="96.75" cy="23" fill="#ADD1B2" rx="11" ry="11" style="stroke: #A80036; stroke-width: 1.0;"/><path d="M99.7188,28.6406 Q99.1406,28.9375 98.5,29.0781 Q97.8594,29.2344 97.1563,29.2344 Q94.6563,29.2344 93.3281,27.5938 Q92.0156,25.9375 92.0156,22.8125 Q92.0156,19.6875 93.3281,18.0313 Q94.6563,16.375 97.1563,16.375 Q97.8594,16.375 98.5,16.5313 Q99.1563,16.6875 99.7188,16.9844 L99.7188,19.7031 Q99.0938,19.125 98.5,18.8594 Q97.9063,18.5781 97.2813,18.5781 Q95.9375,18.5781 95.25,19.6563 Q94.5625,20.7188 94.5625,22.8125 Q94.5625,24.9063 95.25,25.9844 Q95.9375,27.0469 97.2813,27.0469 Q97.9063,27.0469 98.5,26.7813 Q99.0938,26.5 99.7188,25.9219 L99.7188,28.6406 Z "/><text fill="#000000" font-family="sans-serif" font-size="12" lengthAdjust="spacingAndGlyphs" textLength="94" x="117.25" y="27.1543">SpawnLocation</text><line style="stroke: #A80036; stroke-width: 1.5;" x1="8" x2="288" y1="39" y2="39"/><line style="stroke: #A80036; stroke-width: 1.5;" x1="8" x2="288" y1="47" y2="47"/><ellipse cx="18" cy="58" fill="#84BE84" rx="3" ry="3" style="stroke: #038048; stroke-width: 1.0;"/><text fill="#000000" font-family="sans-serif" font-size="11" lengthAdjust="spacingAndGlyphs" textLength="256" x="27" y="61.2104">SpawnLocation(mapMatrix:List&lt;List&lt;bool&gt;&gt;)</text><ellipse cx="18" cy="70.8047" fill="#84BE84" rx="3" ry="3" style="stroke: #038048; stroke-width: 1.0;"/><text fill="#000000" font-family="sans-serif" font-size="11" lengthAdjust="spacingAndGlyphs" textLength="136" x="27" y="74.0151">PlayerSpawn() : Vector3</text><ellipse cx="18" cy="83.6094" fill="#84BE84" rx="3" ry="3" style="stroke: #038048; stroke-width: 1.0;"/><text fill="#000000" font-family="sans-serif" font-size="11" lengthAdjust="spacingAndGlyphs" textLength="137" x="27" y="86.8198">DoorLocation() : Vector3</text><ellipse cx="18" cy="96.4141" fill="#84BE84" rx="3" ry="3" style="stroke: #038048; stroke-width: 1.0;"/><text fill="#000000" font-family="sans-serif" font-size="11" lengthAdjust="spacingAndGlyphs" textLength="160" x="27" y="99.6245">SpawnerLocation() : Vector3</text><!--MD5=[f8405d629a919962348649d3808bb1c8]
@startuml
class SpawnLocation {
    + SpawnLocation(mapMatrix:List<List<bool>>)
    + PlayerSpawn() : Vector3
    + DoorLocation() : Vector3
    + SpawnerLocation() : Vector3
}
@enduml

PlantUML version 1.2020.02(Sun Mar 01 10:22:07 GMT 2020)
(GPL source distribution)
Java Runtime: OpenJDK Runtime Environment
JVM: OpenJDK 64-Bit Server VM
Java Version: 11.0.9+11-Ubuntu-0ubuntu1
Operating System: Linux
Default Encoding: ANSI_X3.4-1968
Language: en
Country: US
--></g></svg>