<?xml version="1.0" encoding="UTF-8" standalone="no"?><svg xmlns="http://www.w3.org/2000/svg" xmlns:xlink="http://www.w3.org/1999/xlink" contentScriptType="application/ecmascript" contentStyleType="text/css" height="200px" preserveAspectRatio="none" style="width:149px;height:200px;" version="1.1" viewBox="0 0 149 200" width="149px" zoomAndPan="magnify"><defs><filter height="300%" id="fsto8oaxe96lz" width="300%" x="-1" y="-1"><feGaussianBlur result="blurOut" stdDeviation="2.0"/><feColorMatrix in="blurOut" result="blurOut2" type="matrix" values="0 0 0 0 0 0 0 0 0 0 0 0 0 0 0 0 0 0 .4 0"/><feOffset dx="4.0" dy="4.0" in="blurOut2" result="blurOut3"/><feBlend in="SourceGraphic" in2="blurOut3" mode="normal"/></filter></defs><g><!--MD5=[6b13f1b330d33795af281e5c1dfe1e98]
class Resource--><rect fill="#FEFECE" filter="url(#fsto8oaxe96lz)" height="73.6094" id="Resource" style="stroke: #A80036; stroke-width: 1.5;" width="132" x="6" y="116"/><ellipse cx="39.45" cy="132" fill="#ADD1B2" rx="11" ry="11" style="stroke: #A80036; stroke-width: 1.0;"/><path d="M42.4188,137.6406 Q41.8406,137.9375 41.2,138.0781 Q40.5594,138.2344 39.8563,138.2344 Q37.3563,138.2344 36.0281,136.5938 Q34.7156,134.9375 34.7156,131.8125 Q34.7156,128.6875 36.0281,127.0313 Q37.3563,125.375 39.8563,125.375 Q40.5594,125.375 41.2,125.5313 Q41.8563,125.6875 42.4188,125.9844 L42.4188,128.7031 Q41.7938,128.125 41.2,127.8594 Q40.6063,127.5781 39.9813,127.5781 Q38.6375,127.5781 37.95,128.6563 Q37.2625,129.7188 37.2625,131.8125 Q37.2625,133.9063 37.95,134.9844 Q38.6375,136.0469 39.9813,136.0469 Q40.6063,136.0469 41.2,135.7813 Q41.7938,135.5 42.4188,134.9219 L42.4188,137.6406 Z "/><text fill="#000000" font-family="sans-serif" font-size="12" lengthAdjust="spacingAndGlyphs" textLength="59" x="57.55" y="136.1543">Resource</text><line style="stroke: #A80036; stroke-width: 1.5;" x1="7" x2="137" y1="148" y2="148"/><line style="stroke: #A80036; stroke-width: 1.5;" x1="7" x2="137" y1="156" y2="156"/><ellipse cx="17" cy="167" fill="#84BE84" rx="3" ry="3" style="stroke: #038048; stroke-width: 1.0;"/><text fill="#000000" font-family="sans-serif" font-size="11" lengthAdjust="spacingAndGlyphs" textLength="106" x="26" y="170.2104">GetName() : string</text><ellipse cx="17" cy="179.8047" fill="#84BE84" rx="3" ry="3" style="stroke: #038048; stroke-width: 1.0;"/><text fill="#000000" font-family="sans-serif" font-size="11" lengthAdjust="spacingAndGlyphs" textLength="101" x="26" y="183.0151">GetQuantity() : int</text><!--MD5=[83b3cf3d23d77c6f1e1b5291a241bc2a]
class MonoBehaviour--><rect fill="#FEFECE" filter="url(#fsto8oaxe96lz)" height="48" id="MonoBehaviour" style="stroke: #A80036; stroke-width: 1.5;" width="128" x="8" y="8"/><ellipse cx="23" cy="24" fill="#ADD1B2" rx="11" ry="11" style="stroke: #A80036; stroke-width: 1.0;"/><path d="M25.9688,29.6406 Q25.3906,29.9375 24.75,30.0781 Q24.1094,30.2344 23.4063,30.2344 Q20.9063,30.2344 19.5781,28.5938 Q18.2656,26.9375 18.2656,23.8125 Q18.2656,20.6875 19.5781,19.0313 Q20.9063,17.375 23.4063,17.375 Q24.1094,17.375 24.75,17.5313 Q25.4063,17.6875 25.9688,17.9844 L25.9688,20.7031 Q25.3438,20.125 24.75,19.8594 Q24.1563,19.5781 23.5313,19.5781 Q22.1875,19.5781 21.5,20.6563 Q20.8125,21.7188 20.8125,23.8125 Q20.8125,25.9063 21.5,26.9844 Q22.1875,28.0469 23.5313,28.0469 Q24.1563,28.0469 24.75,27.7813 Q25.3438,27.5 25.9688,26.9219 L25.9688,29.6406 Z "/><text fill="#000000" font-family="sans-serif" font-size="12" lengthAdjust="spacingAndGlyphs" textLength="96" x="37" y="28.1543">MonoBehaviour</text><line style="stroke: #A80036; stroke-width: 1.5;" x1="9" x2="135" y1="40" y2="40"/><line style="stroke: #A80036; stroke-width: 1.5;" x1="9" x2="135" y1="48" y2="48"/><!--MD5=[e28382b68bc67461fef054f63298fc50]
reverse link MonoBehaviour to Resource--><path d="M72,76.43 C72,89.33 72,103.32 72,115.71 " fill="none" id="MonoBehaviour&lt;-Resource" style="stroke: #A80036; stroke-width: 1.0;"/><polygon fill="none" points="65,76.23,72,56.23,79,76.23,65,76.23" style="stroke: #A80036; stroke-width: 1.0;"/><!--MD5=[50a6aca21871afd4058de03cfc4e17fa]
@startuml
class Resource {
    + GetName() : string
    + GetQuantity() : int
}
MonoBehaviour <|- - Resource
@enduml

PlantUML version 1.2020.02(Sun Mar 01 10:22:07 GMT 2020)
(GPL source distribution)
Java Runtime: OpenJDK Runtime Environment
JVM: OpenJDK 64-Bit Server VM
Java Version: 11.0.9+11-Ubuntu-0ubuntu1
Operating System: Linux
Default Encoding: ANSI_X3.4-1968
Language: en
Country: US
--></g></svg>