<?xml version="1.0" encoding="UTF-8" standalone="no"?><svg xmlns="http://www.w3.org/2000/svg" xmlns:xlink="http://www.w3.org/1999/xlink" contentScriptType="application/ecmascript" contentStyleType="text/css" height="175px" preserveAspectRatio="none" style="width:145px;height:175px;" version="1.1" viewBox="0 0 145 175" width="145px" zoomAndPan="magnify"><defs><filter height="300%" id="f16kwbsq5p3l2r" width="300%" x="-1" y="-1"><feGaussianBlur result="blurOut" stdDeviation="2.0"/><feColorMatrix in="blurOut" result="blurOut2" type="matrix" values="0 0 0 0 0 0 0 0 0 0 0 0 0 0 0 0 0 0 .4 0"/><feOffset dx="4.0" dy="4.0" in="blurOut2" result="blurOut3"/><feBlend in="SourceGraphic" in2="blurOut3" mode="normal"/></filter></defs><g><!--MD5=[ff61424299de7fbd1b7bbdfe7c644dfd]
class Door--><rect fill="#FEFECE" filter="url(#f16kwbsq5p3l2r)" height="48" id="Door" style="stroke: #A80036; stroke-width: 1.5;" width="62" x="39" y="116"/><ellipse cx="54" cy="132" fill="#ADD1B2" rx="11" ry="11" style="stroke: #A80036; stroke-width: 1.0;"/><path d="M56.9688,137.6406 Q56.3906,137.9375 55.75,138.0781 Q55.1094,138.2344 54.4063,138.2344 Q51.9063,138.2344 50.5781,136.5938 Q49.2656,134.9375 49.2656,131.8125 Q49.2656,128.6875 50.5781,127.0313 Q51.9063,125.375 54.4063,125.375 Q55.1094,125.375 55.75,125.5313 Q56.4063,125.6875 56.9688,125.9844 L56.9688,128.7031 Q56.3438,128.125 55.75,127.8594 Q55.1563,127.5781 54.5313,127.5781 Q53.1875,127.5781 52.5,128.6563 Q51.8125,129.7188 51.8125,131.8125 Q51.8125,133.9063 52.5,134.9844 Q53.1875,136.0469 54.5313,136.0469 Q55.1563,136.0469 55.75,135.7813 Q56.3438,135.5 56.9688,134.9219 L56.9688,137.6406 Z "/><text fill="#000000" font-family="sans-serif" font-size="12" lengthAdjust="spacingAndGlyphs" textLength="30" x="68" y="136.1543">Door</text><line style="stroke: #A80036; stroke-width: 1.5;" x1="40" x2="100" y1="148" y2="148"/><line style="stroke: #A80036; stroke-width: 1.5;" x1="40" x2="100" y1="156" y2="156"/><!--MD5=[83b3cf3d23d77c6f1e1b5291a241bc2a]
class MonoBehaviour--><rect fill="#FEFECE" filter="url(#f16kwbsq5p3l2r)" height="48" id="MonoBehaviour" style="stroke: #A80036; stroke-width: 1.5;" width="128" x="6" y="8"/><ellipse cx="21" cy="24" fill="#ADD1B2" rx="11" ry="11" style="stroke: #A80036; stroke-width: 1.0;"/><path d="M23.9688,29.6406 Q23.3906,29.9375 22.75,30.0781 Q22.1094,30.2344 21.4063,30.2344 Q18.9063,30.2344 17.5781,28.5938 Q16.2656,26.9375 16.2656,23.8125 Q16.2656,20.6875 17.5781,19.0313 Q18.9063,17.375 21.4063,17.375 Q22.1094,17.375 22.75,17.5313 Q23.4063,17.6875 23.9688,17.9844 L23.9688,20.7031 Q23.3438,20.125 22.75,19.8594 Q22.1563,19.5781 21.5313,19.5781 Q20.1875,19.5781 19.5,20.6563 Q18.8125,21.7188 18.8125,23.8125 Q18.8125,25.9063 19.5,26.9844 Q20.1875,28.0469 21.5313,28.0469 Q22.1563,28.0469 22.75,27.7813 Q23.3438,27.5 23.9688,26.9219 L23.9688,29.6406 Z "/><text fill="#000000" font-family="sans-serif" font-size="12" lengthAdjust="spacingAndGlyphs" textLength="96" x="35" y="28.1543">MonoBehaviour</text><line style="stroke: #A80036; stroke-width: 1.5;" x1="7" x2="133" y1="40" y2="40"/><line style="stroke: #A80036; stroke-width: 1.5;" x1="7" x2="133" y1="48" y2="48"/><!--MD5=[d1cd8aeba7966dbe8e7842710a6eb440]
reverse link MonoBehaviour to Door--><path d="M70,76.02 C70,89.58 70,104.04 70,115.68 " fill="none" id="MonoBehaviour&lt;-Door" style="stroke: #A80036; stroke-width: 1.0;"/><polygon fill="none" points="63,76,70,56,77,76,63,76" style="stroke: #A80036; stroke-width: 1.0;"/><!--MD5=[34c82f91a048053586533863edcefeac]
@startuml
class Door {
}
MonoBehaviour <|- - Door
@enduml

PlantUML version 1.2020.02(Sun Mar 01 10:22:07 GMT 2020)
(GPL source distribution)
Java Runtime: OpenJDK Runtime Environment
JVM: OpenJDK 64-Bit Server VM
Java Version: 11.0.9+11-Ubuntu-0ubuntu1
Operating System: Linux
Default Encoding: ANSI_X3.4-1968
Language: en
Country: US
--></g></svg>