<?xml version="1.0" encoding="UTF-8" standalone="no"?><svg xmlns="http://www.w3.org/2000/svg" xmlns:xlink="http://www.w3.org/1999/xlink" contentScriptType="application/ecmascript" contentStyleType="text/css" height="411px" preserveAspectRatio="none" style="width:145px;height:411px;" version="1.1" viewBox="0 0 145 411" width="145px" zoomAndPan="magnify"><defs><filter height="300%" id="ff1ni2xbdn4by" width="300%" x="-1" y="-1"><feGaussianBlur result="blurOut" stdDeviation="2.0"/><feColorMatrix in="blurOut" result="blurOut2" type="matrix" values="0 0 0 0 0 0 0 0 0 0 0 0 0 0 0 0 0 0 .4 0"/><feOffset dx="4.0" dy="4.0" in="blurOut2" result="blurOut3"/><feBlend in="SourceGraphic" in2="blurOut3" mode="normal"/></filter></defs><g><!--MD5=[2af5ec4cc1a61733c11791a1ea04f3fa]
class MapGenerator--><rect fill="#FEFECE" filter="url(#ff1ni2xbdn4by)" height="60.8047" id="MapGenerator" style="stroke: #A80036; stroke-width: 1.5;" width="122" x="9" y="116"/><ellipse cx="24" cy="132" fill="#ADD1B2" rx="11" ry="11" style="stroke: #A80036; stroke-width: 1.0;"/><path d="M26.9688,137.6406 Q26.3906,137.9375 25.75,138.0781 Q25.1094,138.2344 24.4063,138.2344 Q21.9063,138.2344 20.5781,136.5938 Q19.2656,134.9375 19.2656,131.8125 Q19.2656,128.6875 20.5781,127.0313 Q21.9063,125.375 24.4063,125.375 Q25.1094,125.375 25.75,125.5313 Q26.4063,125.6875 26.9688,125.9844 L26.9688,128.7031 Q26.3438,128.125 25.75,127.8594 Q25.1563,127.5781 24.5313,127.5781 Q23.1875,127.5781 22.5,128.6563 Q21.8125,129.7188 21.8125,131.8125 Q21.8125,133.9063 22.5,134.9844 Q23.1875,136.0469 24.5313,136.0469 Q25.1563,136.0469 25.75,135.7813 Q26.3438,135.5 26.9688,134.9219 L26.9688,137.6406 Z "/><text fill="#000000" font-family="sans-serif" font-size="12" lengthAdjust="spacingAndGlyphs" textLength="90" x="38" y="136.1543">MapGenerator</text><line style="stroke: #A80036; stroke-width: 1.5;" x1="10" x2="130" y1="148" y2="148"/><line style="stroke: #A80036; stroke-width: 1.5;" x1="10" x2="130" y1="156" y2="156"/><ellipse cx="20" cy="167" fill="#84BE84" rx="3" ry="3" style="stroke: #038048; stroke-width: 1.0;"/><text fill="#000000" font-family="sans-serif" font-size="11" lengthAdjust="spacingAndGlyphs" textLength="71" x="29" y="170.2104">Start() : void</text><!--MD5=[2d5d551b4fa6fc7745dffc08ea4b79cf]
class WallVersions--><rect fill="#FEFECE" filter="url(#ff1ni2xbdn4by)" height="163.2422" id="WallVersions" style="stroke: #A80036; stroke-width: 1.5;" width="111" x="14.5" y="237"/><ellipse cx="29.5" cy="253" fill="#EB937F" rx="11" ry="11" style="stroke: #A80036; stroke-width: 1.0;"/><path d="M33.6094,259 L25.8906,259 L25.8906,246.6094 L33.6094,246.6094 L33.6094,248.7656 L28.3438,248.7656 L28.3438,251.4375 L33.1094,251.4375 L33.1094,253.5938 L28.3438,253.5938 L28.3438,256.8438 L33.6094,256.8438 L33.6094,259 Z "/><text fill="#000000" font-family="sans-serif" font-size="12" lengthAdjust="spacingAndGlyphs" textLength="79" x="43.5" y="257.1543">WallVersions</text><line style="stroke: #A80036; stroke-width: 1.5;" x1="15.5" x2="124.5" y1="269" y2="269"/><text fill="#000000" font-family="sans-serif" font-size="11" lengthAdjust="spacingAndGlyphs" textLength="45" x="20.5" y="283.2104">Square,</text><text fill="#000000" font-family="sans-serif" font-size="11" lengthAdjust="spacingAndGlyphs" textLength="56" x="20.5" y="296.0151">CornerTL,</text><text fill="#000000" font-family="sans-serif" font-size="11" lengthAdjust="spacingAndGlyphs" textLength="57" x="20.5" y="308.8198">CornerTR,</text><text fill="#000000" font-family="sans-serif" font-size="11" lengthAdjust="spacingAndGlyphs" textLength="57" x="20.5" y="321.6245">CornerBL,</text><text fill="#000000" font-family="sans-serif" font-size="11" lengthAdjust="spacingAndGlyphs" textLength="58" x="20.5" y="334.4292">CornerBR,</text><text fill="#000000" font-family="sans-serif" font-size="11" lengthAdjust="spacingAndGlyphs" textLength="66" x="20.5" y="347.2339">DiagonalTL,</text><text fill="#000000" font-family="sans-serif" font-size="11" lengthAdjust="spacingAndGlyphs" textLength="67" x="20.5" y="360.0386">DiagonalTR,</text><text fill="#000000" font-family="sans-serif" font-size="11" lengthAdjust="spacingAndGlyphs" textLength="67" x="20.5" y="372.8433">DiagonalBL,</text><text fill="#000000" font-family="sans-serif" font-size="11" lengthAdjust="spacingAndGlyphs" textLength="68" x="20.5" y="385.6479">DiagonalBR,</text><line style="stroke: #A80036; stroke-width: 1.5;" x1="15.5" x2="124.5" y1="392.2422" y2="392.2422"/><!--MD5=[83b3cf3d23d77c6f1e1b5291a241bc2a]
class MonoBehaviour--><rect fill="#FEFECE" filter="url(#ff1ni2xbdn4by)" height="48" id="MonoBehaviour" style="stroke: #A80036; stroke-width: 1.5;" width="128" x="6" y="8"/><ellipse cx="21" cy="24" fill="#ADD1B2" rx="11" ry="11" style="stroke: #A80036; stroke-width: 1.0;"/><path d="M23.9688,29.6406 Q23.3906,29.9375 22.75,30.0781 Q22.1094,30.2344 21.4063,30.2344 Q18.9063,30.2344 17.5781,28.5938 Q16.2656,26.9375 16.2656,23.8125 Q16.2656,20.6875 17.5781,19.0313 Q18.9063,17.375 21.4063,17.375 Q22.1094,17.375 22.75,17.5313 Q23.4063,17.6875 23.9688,17.9844 L23.9688,20.7031 Q23.3438,20.125 22.75,19.8594 Q22.1563,19.5781 21.5313,19.5781 Q20.1875,19.5781 19.5,20.6563 Q18.8125,21.7188 18.8125,23.8125 Q18.8125,25.9063 19.5,26.9844 Q20.1875,28.0469 21.5313,28.0469 Q22.1563,28.0469 22.75,27.7813 Q23.3438,27.5 23.9688,26.9219 L23.9688,29.6406 Z "/><text fill="#000000" font-family="sans-serif" font-size="12" lengthAdjust="spacingAndGlyphs" textLength="96" x="35" y="28.1543">MonoBehaviour</text><line style="stroke: #A80036; stroke-width: 1.5;" x1="7" x2="133" y1="40" y2="40"/><line style="stroke: #A80036; stroke-width: 1.5;" x1="7" x2="133" y1="48" y2="48"/><!--MD5=[a7fdb1001e5dcd60f99dedd996d5f2a6]
reverse link MonoBehaviour to MapGenerator--><path d="M70,76.11 C70,89.31 70,103.54 70,115.65 " fill="none" id="MonoBehaviour&lt;-MapGenerator" style="stroke: #A80036; stroke-width: 1.0;"/><polygon fill="none" points="63,76.04,70,56.04,77,76.04,63,76.04" style="stroke: #A80036; stroke-width: 1.0;"/><!--MD5=[0efc6f7ba9b811c7b6639bec71f09b4d]
reverse link MapGenerator to WallVersions--><path d="M70,192.23 C70,205.92 70,221.42 70,236.74 " fill="none" id="MapGenerator&lt;-WallVersions" style="stroke: #A80036; stroke-width: 1.0;"/><ellipse cx="70" cy="185.11" fill="#FFFFFF" rx="8" ry="8" style="stroke: #A80036; stroke-width: 1.0;"/><line style="stroke: #A80036; stroke-width: 1.0;" x1="70" x2="70" y1="193.11" y2="177.11"/><line style="stroke: #A80036; stroke-width: 1.0;" x1="62" x2="78" y1="185.11" y2="185.11"/><!--MD5=[b116e6b92b97c2a048b7eab1298c51b1]
@startuml
class MapGenerator {
    + Start() : void
}
enum WallVersions {
    Square,
    CornerTL,
    CornerTR,
    CornerBL,
    CornerBR,
    DiagonalTL,
    DiagonalTR,
    DiagonalBL,
    DiagonalBR,
}
MonoBehaviour <|- - MapGenerator
MapGenerator +- - WallVersions
@enduml

PlantUML version 1.2020.02(Sun Mar 01 10:22:07 GMT 2020)
(GPL source distribution)
Java Runtime: OpenJDK Runtime Environment
JVM: OpenJDK 64-Bit Server VM
Java Version: 11.0.9+11-Ubuntu-0ubuntu1
Operating System: Linux
Default Encoding: ANSI_X3.4-1968
Language: en
Country: US
--></g></svg>