<?xml version="1.0" encoding="UTF-8" standalone="no"?><svg xmlns="http://www.w3.org/2000/svg" xmlns:xlink="http://www.w3.org/1999/xlink" contentScriptType="application/ecmascript" contentStyleType="text/css" height="226px" preserveAspectRatio="none" style="width:433px;height:226px;" version="1.1" viewBox="0 0 433 226" width="433px" zoomAndPan="magnify"><defs><filter height="300%" id="f18fnbs0cnbiqb" width="300%" x="-1" y="-1"><feGaussianBlur result="blurOut" stdDeviation="2.0"/><feColorMatrix in="blurOut" result="blurOut2" type="matrix" values="0 0 0 0 0 0 0 0 0 0 0 0 0 0 0 0 0 0 .4 0"/><feOffset dx="4.0" dy="4.0" in="blurOut2" result="blurOut3"/><feBlend in="SourceGraphic" in2="blurOut3" mode="normal"/></filter></defs><g><!--MD5=[af3a9473e73aac7e3a053f585c345070]
class SpawnObject--><rect fill="#FEFECE" filter="url(#f18fnbs0cnbiqb)" height="99.2188" id="SpawnObject" style="stroke: #A80036; stroke-width: 1.5;" width="416" x="6" y="116"/><ellipse cx="169.25" cy="132" fill="#ADD1B2" rx="11" ry="11" style="stroke: #A80036; stroke-width: 1.0;"/><path d="M172.2188,137.6406 Q171.6406,137.9375 171,138.0781 Q170.3594,138.2344 169.6563,138.2344 Q167.1563,138.2344 165.8281,136.5938 Q164.5156,134.9375 164.5156,131.8125 Q164.5156,128.6875 165.8281,127.0313 Q167.1563,125.375 169.6563,125.375 Q170.3594,125.375 171,125.5313 Q171.6563,125.6875 172.2188,125.9844 L172.2188,128.7031 Q171.5938,128.125 171,127.8594 Q170.4063,127.5781 169.7813,127.5781 Q168.4375,127.5781 167.75,128.6563 Q167.0625,129.7188 167.0625,131.8125 Q167.0625,133.9063 167.75,134.9844 Q168.4375,136.0469 169.7813,136.0469 Q170.4063,136.0469 171,135.7813 Q171.5938,135.5 172.2188,134.9219 L172.2188,137.6406 Z "/><text fill="#000000" font-family="sans-serif" font-size="12" lengthAdjust="spacingAndGlyphs" textLength="81" x="189.75" y="136.1543">SpawnObject</text><line style="stroke: #A80036; stroke-width: 1.5;" x1="7" x2="421" y1="148" y2="148"/><line style="stroke: #A80036; stroke-width: 1.5;" x1="7" x2="421" y1="156" y2="156"/><ellipse cx="17" cy="167" fill="#84BE84" rx="3" ry="3" style="stroke: #038048; stroke-width: 1.0;"/><text fill="#000000" font-family="sans-serif" font-size="11" lengthAdjust="spacingAndGlyphs" text-decoration="underline" textLength="339" x="26" y="170.2104">Spawn(obj:GameObject, location:Vector3, angle:float) : void</text><ellipse cx="17" cy="179.8047" fill="#84BE84" rx="3" ry="3" style="stroke: #038048; stroke-width: 1.0;"/><text fill="#000000" font-family="sans-serif" font-size="11" lengthAdjust="spacingAndGlyphs" text-decoration="underline" textLength="390" x="26" y="183.0151">Spawn(obj:GameObject, location:Vector3, rotation:Quaternion) : void</text><ellipse cx="17" cy="192.6094" fill="#84BE84" rx="3" ry="3" style="stroke: #038048; stroke-width: 1.0;"/><text fill="#000000" font-family="sans-serif" font-size="11" lengthAdjust="spacingAndGlyphs" text-decoration="underline" textLength="271" x="26" y="195.8198">Spawn(obj:GameObject, location:Vector3) : void</text><ellipse cx="17" cy="205.4141" fill="#84BE84" rx="3" ry="3" style="stroke: #038048; stroke-width: 1.0;"/><text fill="#000000" font-family="sans-serif" font-size="11" lengthAdjust="spacingAndGlyphs" text-decoration="underline" textLength="330" x="26" y="208.6245">AllowedToSpawn(obj:GameObject, position:Vector3) : bool</text><!--MD5=[83b3cf3d23d77c6f1e1b5291a241bc2a]
class MonoBehaviour--><rect fill="#FEFECE" filter="url(#f18fnbs0cnbiqb)" height="48" id="MonoBehaviour" style="stroke: #A80036; stroke-width: 1.5;" width="128" x="150" y="8"/><ellipse cx="165" cy="24" fill="#ADD1B2" rx="11" ry="11" style="stroke: #A80036; stroke-width: 1.0;"/><path d="M167.9688,29.6406 Q167.3906,29.9375 166.75,30.0781 Q166.1094,30.2344 165.4063,30.2344 Q162.9063,30.2344 161.5781,28.5938 Q160.2656,26.9375 160.2656,23.8125 Q160.2656,20.6875 161.5781,19.0313 Q162.9063,17.375 165.4063,17.375 Q166.1094,17.375 166.75,17.5313 Q167.4063,17.6875 167.9688,17.9844 L167.9688,20.7031 Q167.3438,20.125 166.75,19.8594 Q166.1563,19.5781 165.5313,19.5781 Q164.1875,19.5781 163.5,20.6563 Q162.8125,21.7188 162.8125,23.8125 Q162.8125,25.9063 163.5,26.9844 Q164.1875,28.0469 165.5313,28.0469 Q166.1563,28.0469 166.75,27.7813 Q167.3438,27.5 167.9688,26.9219 L167.9688,29.6406 Z "/><text fill="#000000" font-family="sans-serif" font-size="12" lengthAdjust="spacingAndGlyphs" textLength="96" x="179" y="28.1543">MonoBehaviour</text><line style="stroke: #A80036; stroke-width: 1.5;" x1="151" x2="277" y1="40" y2="40"/><line style="stroke: #A80036; stroke-width: 1.5;" x1="151" x2="277" y1="48" y2="48"/><!--MD5=[9858a854e6f1462da01294f4504a28b7]
reverse link MonoBehaviour to SpawnObject--><path d="M214,76.51 C214,89.14 214,103.01 214,115.93 " fill="none" id="MonoBehaviour&lt;-SpawnObject" style="stroke: #A80036; stroke-width: 1.0;"/><polygon fill="none" points="207,76.21,214,56.21,221,76.21,207,76.21" style="stroke: #A80036; stroke-width: 1.0;"/><!--MD5=[b7e67ddda713f99cf122330bbf659c3a]
@startuml
class SpawnObject {
    + {static} Spawn(obj:GameObject, location:Vector3, angle:float) : void
    + {static} Spawn(obj:GameObject, location:Vector3, rotation:Quaternion) : void
    + {static} Spawn(obj:GameObject, location:Vector3) : void
    + {static} AllowedToSpawn(obj:GameObject, position:Vector3) : bool
}
MonoBehaviour <|- - SpawnObject
@enduml

PlantUML version 1.2020.02(Sun Mar 01 10:22:07 GMT 2020)
(GPL source distribution)
Java Runtime: OpenJDK Runtime Environment
JVM: OpenJDK 64-Bit Server VM
Java Version: 11.0.9+11-Ubuntu-0ubuntu1
Operating System: Linux
Default Encoding: ANSI_X3.4-1968
Language: en
Country: US
--></g></svg>