<?xml version="1.0" encoding="UTF-8" standalone="no"?><svg xmlns="http://www.w3.org/2000/svg" xmlns:xlink="http://www.w3.org/1999/xlink" contentScriptType="application/ecmascript" contentStyleType="text/css" height="148px" preserveAspectRatio="none" style="width:627px;height:148px;" version="1.1" viewBox="0 0 627 148" width="627px" zoomAndPan="magnify"><defs><filter height="300%" id="f1145a4me9v60f" width="300%" x="-1" y="-1"><feGaussianBlur result="blurOut" stdDeviation="2.0"/><feColorMatrix in="blurOut" result="blurOut2" type="matrix" values="0 0 0 0 0 0 0 0 0 0 0 0 0 0 0 0 0 0 .4 0"/><feOffset dx="4.0" dy="4.0" in="blurOut2" result="blurOut3"/><feBlend in="SourceGraphic" in2="blurOut3" mode="normal"/></filter></defs><g><!--MD5=[41e8030464447de9caaa30e39cb8dfb0]
class ResourceManager--><rect fill="#FEFECE" filter="url(#f1145a4me9v60f)" height="130.7656" id="ResourceManager" style="stroke: #A80036; stroke-width: 1.5;" width="609" x="7" y="7"/><ellipse cx="250.25" cy="25.9688" fill="#ADD1B2" rx="11" ry="11" style="stroke: #A80036; stroke-width: 1.0;"/><path d="M253.2188,31.6094 Q252.6406,31.9063 252,32.0469 Q251.3594,32.2031 250.6563,32.2031 Q248.1563,32.2031 246.8281,30.5625 Q245.5156,28.9063 245.5156,25.7813 Q245.5156,22.6563 246.8281,21 Q248.1563,19.3438 250.6563,19.3438 Q251.3594,19.3438 252,19.5 Q252.6563,19.6563 253.2188,19.9531 L253.2188,22.6719 Q252.5938,22.0938 252,21.8281 Q251.4063,21.5469 250.7813,21.5469 Q249.4375,21.5469 248.75,22.625 Q248.0625,23.6875 248.0625,25.7813 Q248.0625,27.875 248.75,28.9531 Q249.4375,30.0156 250.7813,30.0156 Q251.4063,30.0156 252,29.75 Q252.5938,29.4688 253.2188,28.8906 L253.2188,31.6094 Z "/><text fill="#000000" font-family="sans-serif" font-size="12" font-style="italic" lengthAdjust="spacingAndGlyphs" textLength="48" x="303.75" y="23.1387">«static»</text><text fill="#000000" font-family="sans-serif" font-size="12" lengthAdjust="spacingAndGlyphs" textLength="114" x="270.75" y="37.1074">ResourceManager</text><line style="stroke: #A80036; stroke-width: 1.5;" x1="8" x2="615" y1="44.9375" y2="44.9375"/><line style="stroke: #A80036; stroke-width: 1.5;" x1="8" x2="615" y1="52.9375" y2="52.9375"/><ellipse cx="18" cy="63.9375" fill="#84BE84" rx="3" ry="3" style="stroke: #038048; stroke-width: 1.0;"/><text fill="#000000" font-family="sans-serif" font-size="11" lengthAdjust="spacingAndGlyphs" text-decoration="underline" textLength="176" x="27" y="67.1479">GetResource(name:string) : int</text><ellipse cx="18" cy="76.7422" fill="#84BE84" rx="3" ry="3" style="stroke: #038048; stroke-width: 1.0;"/><text fill="#000000" font-family="sans-serif" font-size="11" lengthAdjust="spacingAndGlyphs" text-decoration="underline" textLength="221" x="27" y="79.9526">GetCollected() : Dictionary&lt;string, int&gt;</text><ellipse cx="18" cy="89.5469" fill="#84BE84" rx="3" ry="3" style="stroke: #038048; stroke-width: 1.0;"/><text fill="#000000" font-family="sans-serif" font-size="11" lengthAdjust="spacingAndGlyphs" text-decoration="underline" textLength="309" x="27" y="92.7573">HasResources(compare:Dictionary&lt;string, int&gt;) : bool</text><ellipse cx="18" cy="102.3516" fill="#84BE84" rx="3" ry="3" style="stroke: #038048; stroke-width: 1.0;"/><text fill="#000000" font-family="sans-serif" font-size="11" lengthAdjust="spacingAndGlyphs" text-decoration="underline" textLength="215" x="27" y="105.562">CollectResource(o:GameObject) : void</text><ellipse cx="18" cy="115.1563" fill="#84BE84" rx="3" ry="3" style="stroke: #038048; stroke-width: 1.0;"/><text fill="#000000" font-family="sans-serif" font-size="11" lengthAdjust="spacingAndGlyphs" text-decoration="underline" textLength="583" x="27" y="118.3667">DropResource(possibleDrops:GameObject[], dropCycles:int, dropLikelihood:int, location:Vector3) : void</text><ellipse cx="18" cy="127.9609" fill="#84BE84" rx="3" ry="3" style="stroke: #038048; stroke-width: 1.0;"/><text fill="#000000" font-family="sans-serif" font-size="11" lengthAdjust="spacingAndGlyphs" text-decoration="underline" textLength="332" x="27" y="131.1714">UseResource(useResources:Dictionary&lt;string, int&gt;) : void</text><!--MD5=[782c9b1bd017a1e9b8797854a18b7d97]
@startuml
class ResourceManager <<static>> {
    + {static} GetResource(name:string) : int
    + {static} GetCollected() : Dictionary<string, int>
    + {static} HasResources(compare:Dictionary<string, int>) : bool
    + {static} CollectResource(o:GameObject) : void
    + {static} DropResource(possibleDrops:GameObject[], dropCycles:int, dropLikelihood:int, location:Vector3) : void
    + {static} UseResource(useResources:Dictionary<string, int>) : void
}
@enduml

PlantUML version 1.2020.02(Sun Mar 01 10:22:07 GMT 2020)
(GPL source distribution)
Java Runtime: OpenJDK Runtime Environment
JVM: OpenJDK 64-Bit Server VM
Java Version: 11.0.9+11-Ubuntu-0ubuntu1
Operating System: Linux
Default Encoding: ANSI_X3.4-1968
Language: en
Country: US
--></g></svg>