<?xml version="1.0" encoding="UTF-8" standalone="no"?><svg xmlns="http://www.w3.org/2000/svg" xmlns:xlink="http://www.w3.org/1999/xlink" contentScriptType="application/ecmascript" contentStyleType="text/css" height="175px" preserveAspectRatio="none" style="width:159px;height:175px;" version="1.1" viewBox="0 0 159 175" width="159px" zoomAndPan="magnify"><defs><filter height="300%" id="fuh5a5gssykgv" width="300%" x="-1" y="-1"><feGaussianBlur result="blurOut" stdDeviation="2.0"/><feColorMatrix in="blurOut" result="blurOut2" type="matrix" values="0 0 0 0 0 0 0 0 0 0 0 0 0 0 0 0 0 0 .4 0"/><feOffset dx="4.0" dy="4.0" in="blurOut2" result="blurOut3"/><feBlend in="SourceGraphic" in2="blurOut3" mode="normal"/></filter></defs><g><!--MD5=[b13c7637d5c1c53b59b0602ef5f0e3fb]
class UnityGameLogger--><rect fill="#FEFECE" filter="url(#fuh5a5gssykgv)" height="48" id="UnityGameLogger" style="stroke: #A80036; stroke-width: 1.5;" width="142" x="6" y="116"/><ellipse cx="21" cy="132" fill="#ADD1B2" rx="11" ry="11" style="stroke: #A80036; stroke-width: 1.0;"/><path d="M23.9688,137.6406 Q23.3906,137.9375 22.75,138.0781 Q22.1094,138.2344 21.4063,138.2344 Q18.9063,138.2344 17.5781,136.5938 Q16.2656,134.9375 16.2656,131.8125 Q16.2656,128.6875 17.5781,127.0313 Q18.9063,125.375 21.4063,125.375 Q22.1094,125.375 22.75,125.5313 Q23.4063,125.6875 23.9688,125.9844 L23.9688,128.7031 Q23.3438,128.125 22.75,127.8594 Q22.1563,127.5781 21.5313,127.5781 Q20.1875,127.5781 19.5,128.6563 Q18.8125,129.7188 18.8125,131.8125 Q18.8125,133.9063 19.5,134.9844 Q20.1875,136.0469 21.5313,136.0469 Q22.1563,136.0469 22.75,135.7813 Q23.3438,135.5 23.9688,134.9219 L23.9688,137.6406 Z "/><text fill="#000000" font-family="sans-serif" font-size="12" lengthAdjust="spacingAndGlyphs" textLength="110" x="35" y="136.1543">UnityGameLogger</text><line style="stroke: #A80036; stroke-width: 1.5;" x1="7" x2="147" y1="148" y2="148"/><line style="stroke: #A80036; stroke-width: 1.5;" x1="7" x2="147" y1="156" y2="156"/><!--MD5=[83b3cf3d23d77c6f1e1b5291a241bc2a]
class MonoBehaviour--><rect fill="#FEFECE" filter="url(#fuh5a5gssykgv)" height="48" id="MonoBehaviour" style="stroke: #A80036; stroke-width: 1.5;" width="128" x="13" y="8"/><ellipse cx="28" cy="24" fill="#ADD1B2" rx="11" ry="11" style="stroke: #A80036; stroke-width: 1.0;"/><path d="M30.9688,29.6406 Q30.3906,29.9375 29.75,30.0781 Q29.1094,30.2344 28.4063,30.2344 Q25.9063,30.2344 24.5781,28.5938 Q23.2656,26.9375 23.2656,23.8125 Q23.2656,20.6875 24.5781,19.0313 Q25.9063,17.375 28.4063,17.375 Q29.1094,17.375 29.75,17.5313 Q30.4063,17.6875 30.9688,17.9844 L30.9688,20.7031 Q30.3438,20.125 29.75,19.8594 Q29.1563,19.5781 28.5313,19.5781 Q27.1875,19.5781 26.5,20.6563 Q25.8125,21.7188 25.8125,23.8125 Q25.8125,25.9063 26.5,26.9844 Q27.1875,28.0469 28.5313,28.0469 Q29.1563,28.0469 29.75,27.7813 Q30.3438,27.5 30.9688,26.9219 L30.9688,29.6406 Z "/><text fill="#000000" font-family="sans-serif" font-size="12" lengthAdjust="spacingAndGlyphs" textLength="96" x="42" y="28.1543">MonoBehaviour</text><line style="stroke: #A80036; stroke-width: 1.5;" x1="14" x2="140" y1="40" y2="40"/><line style="stroke: #A80036; stroke-width: 1.5;" x1="14" x2="140" y1="48" y2="48"/><!--MD5=[59ff55d600ca6638ac4441115e563758]
reverse link MonoBehaviour to UnityGameLogger--><path d="M77,76.02 C77,89.58 77,104.04 77,115.68 " fill="none" id="MonoBehaviour&lt;-UnityGameLogger" style="stroke: #A80036; stroke-width: 1.0;"/><polygon fill="none" points="70,76,77,56,84,76,70,76" style="stroke: #A80036; stroke-width: 1.0;"/><!--MD5=[b7373b4cb7d4bdb6b32e6bb779811a47]
@startuml
class UnityGameLogger {
}
MonoBehaviour <|- - UnityGameLogger
@enduml

PlantUML version 1.2020.02(Sun Mar 01 10:22:07 GMT 2020)
(GPL source distribution)
Java Runtime: OpenJDK Runtime Environment
JVM: OpenJDK 64-Bit Server VM
Java Version: 11.0.9+11-Ubuntu-0ubuntu1
Operating System: Linux
Default Encoding: ANSI_X3.4-1968
Language: en
Country: US
--></g></svg>