<?xml version="1.0" encoding="UTF-8" standalone="no"?><svg xmlns="http://www.w3.org/2000/svg" xmlns:xlink="http://www.w3.org/1999/xlink" contentScriptType="application/ecmascript" contentStyleType="text/css" height="175px" preserveAspectRatio="none" style="width:145px;height:175px;" version="1.1" viewBox="0 0 145 175" width="145px" zoomAndPan="magnify"><defs><filter height="300%" id="f1e1tz7tsmh1xx" width="300%" x="-1" y="-1"><feGaussianBlur result="blurOut" stdDeviation="2.0"/><feColorMatrix in="blurOut" result="blurOut2" type="matrix" values="0 0 0 0 0 0 0 0 0 0 0 0 0 0 0 0 0 0 .4 0"/><feOffset dx="4.0" dy="4.0" in="blurOut2" result="blurOut3"/><feBlend in="SourceGraphic" in2="blurOut3" mode="normal"/></filter></defs><g><!--MD5=[83e68ee100a200cb9664da8f25285f2a]
class FollowPlayer--><rect fill="#FEFECE" filter="url(#f1e1tz7tsmh1xx)" height="48" id="FollowPlayer" style="stroke: #A80036; stroke-width: 1.5;" width="108" x="16" y="116"/><ellipse cx="31" cy="132" fill="#ADD1B2" rx="11" ry="11" style="stroke: #A80036; stroke-width: 1.0;"/><path d="M33.9688,137.6406 Q33.3906,137.9375 32.75,138.0781 Q32.1094,138.2344 31.4063,138.2344 Q28.9063,138.2344 27.5781,136.5938 Q26.2656,134.9375 26.2656,131.8125 Q26.2656,128.6875 27.5781,127.0313 Q28.9063,125.375 31.4063,125.375 Q32.1094,125.375 32.75,125.5313 Q33.4063,125.6875 33.9688,125.9844 L33.9688,128.7031 Q33.3438,128.125 32.75,127.8594 Q32.1563,127.5781 31.5313,127.5781 Q30.1875,127.5781 29.5,128.6563 Q28.8125,129.7188 28.8125,131.8125 Q28.8125,133.9063 29.5,134.9844 Q30.1875,136.0469 31.5313,136.0469 Q32.1563,136.0469 32.75,135.7813 Q33.3438,135.5 33.9688,134.9219 L33.9688,137.6406 Z "/><text fill="#000000" font-family="sans-serif" font-size="12" lengthAdjust="spacingAndGlyphs" textLength="76" x="45" y="136.1543">FollowPlayer</text><line style="stroke: #A80036; stroke-width: 1.5;" x1="17" x2="123" y1="148" y2="148"/><line style="stroke: #A80036; stroke-width: 1.5;" x1="17" x2="123" y1="156" y2="156"/><!--MD5=[83b3cf3d23d77c6f1e1b5291a241bc2a]
class MonoBehaviour--><rect fill="#FEFECE" filter="url(#f1e1tz7tsmh1xx)" height="48" id="MonoBehaviour" style="stroke: #A80036; stroke-width: 1.5;" width="128" x="6" y="8"/><ellipse cx="21" cy="24" fill="#ADD1B2" rx="11" ry="11" style="stroke: #A80036; stroke-width: 1.0;"/><path d="M23.9688,29.6406 Q23.3906,29.9375 22.75,30.0781 Q22.1094,30.2344 21.4063,30.2344 Q18.9063,30.2344 17.5781,28.5938 Q16.2656,26.9375 16.2656,23.8125 Q16.2656,20.6875 17.5781,19.0313 Q18.9063,17.375 21.4063,17.375 Q22.1094,17.375 22.75,17.5313 Q23.4063,17.6875 23.9688,17.9844 L23.9688,20.7031 Q23.3438,20.125 22.75,19.8594 Q22.1563,19.5781 21.5313,19.5781 Q20.1875,19.5781 19.5,20.6563 Q18.8125,21.7188 18.8125,23.8125 Q18.8125,25.9063 19.5,26.9844 Q20.1875,28.0469 21.5313,28.0469 Q22.1563,28.0469 22.75,27.7813 Q23.3438,27.5 23.9688,26.9219 L23.9688,29.6406 Z "/><text fill="#000000" font-family="sans-serif" font-size="12" lengthAdjust="spacingAndGlyphs" textLength="96" x="35" y="28.1543">MonoBehaviour</text><line style="stroke: #A80036; stroke-width: 1.5;" x1="7" x2="133" y1="40" y2="40"/><line style="stroke: #A80036; stroke-width: 1.5;" x1="7" x2="133" y1="48" y2="48"/><!--MD5=[06ab32c017aa784661a94d425a2c9713]
reverse link MonoBehaviour to FollowPlayer--><path d="M70,76.02 C70,89.58 70,104.04 70,115.68 " fill="none" id="MonoBehaviour&lt;-FollowPlayer" style="stroke: #A80036; stroke-width: 1.0;"/><polygon fill="none" points="63,76,70,56,77,76,63,76" style="stroke: #A80036; stroke-width: 1.0;"/><!--MD5=[d30ff2ddf45e828d1a9ae2dc5c24667c]
@startuml
class FollowPlayer {
}
MonoBehaviour <|- - FollowPlayer
@enduml

PlantUML version 1.2020.02(Sun Mar 01 10:22:07 GMT 2020)
(GPL source distribution)
Java Runtime: OpenJDK Runtime Environment
JVM: OpenJDK 64-Bit Server VM
Java Version: 11.0.9+11-Ubuntu-0ubuntu1
Operating System: Linux
Default Encoding: ANSI_X3.4-1968
Language: en
Country: US
--></g></svg>