<?xml version="1.0" encoding="UTF-8" standalone="no"?><svg xmlns="http://www.w3.org/2000/svg" xmlns:xlink="http://www.w3.org/1999/xlink" contentScriptType="application/ecmascript" contentStyleType="text/css" height="200px" preserveAspectRatio="none" style="width:777px;height:200px;" version="1.1" viewBox="0 0 777 200" width="777px" zoomAndPan="magnify"><defs><filter height="300%" id="ft2ww2y3auo6o" width="300%" x="-1" y="-1"><feGaussianBlur result="blurOut" stdDeviation="2.0"/><feColorMatrix in="blurOut" result="blurOut2" type="matrix" values="0 0 0 0 0 0 0 0 0 0 0 0 0 0 0 0 0 0 .4 0"/><feOffset dx="4.0" dy="4.0" in="blurOut2" result="blurOut3"/><feBlend in="SourceGraphic" in2="blurOut3" mode="normal"/></filter></defs><g><!--MD5=[e7662a816818721d269c1093ecc1b045]
class SpawnPoint--><rect fill="#FEFECE" filter="url(#ft2ww2y3auo6o)" height="73.6094" id="SpawnPoint" style="stroke: #A80036; stroke-width: 1.5;" width="760" x="6" y="116"/><ellipse cx="345.25" cy="132" fill="#ADD1B2" rx="11" ry="11" style="stroke: #A80036; stroke-width: 1.0;"/><path d="M348.2188,137.6406 Q347.6406,137.9375 347,138.0781 Q346.3594,138.2344 345.6563,138.2344 Q343.1563,138.2344 341.8281,136.5938 Q340.5156,134.9375 340.5156,131.8125 Q340.5156,128.6875 341.8281,127.0313 Q343.1563,125.375 345.6563,125.375 Q346.3594,125.375 347,125.5313 Q347.6563,125.6875 348.2188,125.9844 L348.2188,128.7031 Q347.5938,128.125 347,127.8594 Q346.4063,127.5781 345.7813,127.5781 Q344.4375,127.5781 343.75,128.6563 Q343.0625,129.7188 343.0625,131.8125 Q343.0625,133.9063 343.75,134.9844 Q344.4375,136.0469 345.7813,136.0469 Q346.4063,136.0469 347,135.7813 Q347.5938,135.5 348.2188,134.9219 L348.2188,137.6406 Z "/><text fill="#000000" font-family="sans-serif" font-size="12" lengthAdjust="spacingAndGlyphs" textLength="73" x="365.75" y="136.1543">SpawnPoint</text><line style="stroke: #A80036; stroke-width: 1.5;" x1="7" x2="765" y1="148" y2="148"/><ellipse cx="17" cy="159" fill="none" rx="3" ry="3" style="stroke: #038048; stroke-width: 1.0;"/><text fill="#000000" font-family="sans-serif" font-size="11" lengthAdjust="spacingAndGlyphs" textLength="124" x="26" y="162.2104">WaveCount : int «get»</text><line style="stroke: #A80036; stroke-width: 1.5;" x1="7" x2="765" y1="168.8047" y2="168.8047"/><ellipse cx="17" cy="179.8047" fill="#84BE84" rx="3" ry="3" style="stroke: #038048; stroke-width: 1.0;"/><text fill="#000000" font-family="sans-serif" font-size="11" lengthAdjust="spacingAndGlyphs" textLength="734" x="26" y="183.0151">InitPoint(spawnBoss:bool, spawnInterval:float, waveCount:int, bossCount:int, minTrashCount:int, randomTrashModifier:int) : void</text><!--MD5=[83b3cf3d23d77c6f1e1b5291a241bc2a]
class MonoBehaviour--><rect fill="#FEFECE" filter="url(#ft2ww2y3auo6o)" height="48" id="MonoBehaviour" style="stroke: #A80036; stroke-width: 1.5;" width="128" x="322" y="8"/><ellipse cx="337" cy="24" fill="#ADD1B2" rx="11" ry="11" style="stroke: #A80036; stroke-width: 1.0;"/><path d="M339.9688,29.6406 Q339.3906,29.9375 338.75,30.0781 Q338.1094,30.2344 337.4063,30.2344 Q334.9063,30.2344 333.5781,28.5938 Q332.2656,26.9375 332.2656,23.8125 Q332.2656,20.6875 333.5781,19.0313 Q334.9063,17.375 337.4063,17.375 Q338.1094,17.375 338.75,17.5313 Q339.4063,17.6875 339.9688,17.9844 L339.9688,20.7031 Q339.3438,20.125 338.75,19.8594 Q338.1563,19.5781 337.5313,19.5781 Q336.1875,19.5781 335.5,20.6563 Q334.8125,21.7188 334.8125,23.8125 Q334.8125,25.9063 335.5,26.9844 Q336.1875,28.0469 337.5313,28.0469 Q338.1563,28.0469 338.75,27.7813 Q339.3438,27.5 339.9688,26.9219 L339.9688,29.6406 Z "/><text fill="#000000" font-family="sans-serif" font-size="12" lengthAdjust="spacingAndGlyphs" textLength="96" x="351" y="28.1543">MonoBehaviour</text><line style="stroke: #A80036; stroke-width: 1.5;" x1="323" x2="449" y1="40" y2="40"/><line style="stroke: #A80036; stroke-width: 1.5;" x1="323" x2="449" y1="48" y2="48"/><!--MD5=[8a5826c5652270bc7e8e88ec1e9364c2]
reverse link MonoBehaviour to SpawnPoint--><path d="M386,76.43 C386,89.33 386,103.32 386,115.71 " fill="none" id="MonoBehaviour&lt;-SpawnPoint" style="stroke: #A80036; stroke-width: 1.0;"/><polygon fill="none" points="379,76.23,386,56.23,393,76.23,379,76.23" style="stroke: #A80036; stroke-width: 1.0;"/><!--MD5=[ce4046039bfe1cb4354af1159419552d]
@startuml
class SpawnPoint {
    + WaveCount : int <<get>>
    + InitPoint(spawnBoss:bool, spawnInterval:float, waveCount:int, bossCount:int, minTrashCount:int, randomTrashModifier:int) : void
}
MonoBehaviour <|- - SpawnPoint
@enduml

PlantUML version 1.2020.02(Sun Mar 01 10:22:07 GMT 2020)
(GPL source distribution)
Java Runtime: OpenJDK Runtime Environment
JVM: OpenJDK 64-Bit Server VM
Java Version: 11.0.9+11-Ubuntu-0ubuntu1
Operating System: Linux
Default Encoding: ANSI_X3.4-1968
Language: en
Country: US
--></g></svg>