<?xml version="1.0" encoding="UTF-8" standalone="no"?><svg xmlns="http://www.w3.org/2000/svg" xmlns:xlink="http://www.w3.org/1999/xlink" contentScriptType="application/ecmascript" contentStyleType="text/css" height="283px" preserveAspectRatio="none" style="width:216px;height:283px;" version="1.1" viewBox="0 0 216 283" width="216px" zoomAndPan="magnify"><defs><filter height="300%" id="f4lh2vxbhmbsq" width="300%" x="-1" y="-1"><feGaussianBlur result="blurOut" stdDeviation="2.0"/><feColorMatrix in="blurOut" result="blurOut2" type="matrix" values="0 0 0 0 0 0 0 0 0 0 0 0 0 0 0 0 0 0 .4 0"/><feOffset dx="4.0" dy="4.0" in="blurOut2" result="blurOut3"/><feBlend in="SourceGraphic" in2="blurOut3" mode="normal"/></filter></defs><g><!--MD5=[3b9a5953379d697aeac69362be5c4cf2]
class BuildingSO--><rect fill="#FEFECE" filter="url(#f4lh2vxbhmbsq)" height="48" id="BuildingSO" style="stroke: #A80036; stroke-width: 1.5;" width="98" x="62.5" y="116"/><ellipse cx="77.5" cy="132" fill="#ADD1B2" rx="11" ry="11" style="stroke: #A80036; stroke-width: 1.0;"/><path d="M80.4688,137.6406 Q79.8906,137.9375 79.25,138.0781 Q78.6094,138.2344 77.9063,138.2344 Q75.4063,138.2344 74.0781,136.5938 Q72.7656,134.9375 72.7656,131.8125 Q72.7656,128.6875 74.0781,127.0313 Q75.4063,125.375 77.9063,125.375 Q78.6094,125.375 79.25,125.5313 Q79.9063,125.6875 80.4688,125.9844 L80.4688,128.7031 Q79.8438,128.125 79.25,127.8594 Q78.6563,127.5781 78.0313,127.5781 Q76.6875,127.5781 76,128.6563 Q75.3125,129.7188 75.3125,131.8125 Q75.3125,133.9063 76,134.9844 Q76.6875,136.0469 78.0313,136.0469 Q78.6563,136.0469 79.25,135.7813 Q79.8438,135.5 80.4688,134.9219 L80.4688,137.6406 Z "/><text fill="#000000" font-family="sans-serif" font-size="12" lengthAdjust="spacingAndGlyphs" textLength="66" x="91.5" y="136.1543">BuildingSO</text><line style="stroke: #A80036; stroke-width: 1.5;" x1="63.5" x2="159.5" y1="148" y2="148"/><line style="stroke: #A80036; stroke-width: 1.5;" x1="63.5" x2="159.5" y1="156" y2="156"/><!--MD5=[44895057fba17b10f3053a7baa21df04]
class ScriptableObject--><rect fill="#FEFECE" filter="url(#f4lh2vxbhmbsq)" height="48" id="ScriptableObject" style="stroke: #A80036; stroke-width: 1.5;" width="135" x="44" y="8"/><ellipse cx="59" cy="24" fill="#ADD1B2" rx="11" ry="11" style="stroke: #A80036; stroke-width: 1.0;"/><path d="M61.9688,29.6406 Q61.3906,29.9375 60.75,30.0781 Q60.1094,30.2344 59.4063,30.2344 Q56.9063,30.2344 55.5781,28.5938 Q54.2656,26.9375 54.2656,23.8125 Q54.2656,20.6875 55.5781,19.0313 Q56.9063,17.375 59.4063,17.375 Q60.1094,17.375 60.75,17.5313 Q61.4063,17.6875 61.9688,17.9844 L61.9688,20.7031 Q61.3438,20.125 60.75,19.8594 Q60.1563,19.5781 59.5313,19.5781 Q58.1875,19.5781 57.5,20.6563 Q56.8125,21.7188 56.8125,23.8125 Q56.8125,25.9063 57.5,26.9844 Q58.1875,28.0469 59.5313,28.0469 Q60.1563,28.0469 60.75,27.7813 Q61.3438,27.5 61.9688,26.9219 L61.9688,29.6406 Z "/><text fill="#000000" font-family="sans-serif" font-size="12" lengthAdjust="spacingAndGlyphs" textLength="103" x="73" y="28.1543">ScriptableObject</text><line style="stroke: #A80036; stroke-width: 1.5;" x1="45" x2="178" y1="40" y2="40"/><line style="stroke: #A80036; stroke-width: 1.5;" x1="45" x2="178" y1="48" y2="48"/><!--MD5=[004b1d6c4ca8aad4ba8b586a335ed4f3]
class Transform--><rect fill="#FEFECE" filter="url(#f4lh2vxbhmbsq)" height="48" id="Transform" style="stroke: #A80036; stroke-width: 1.5;" width="95" x="6" y="224"/><ellipse cx="21" cy="240" fill="#ADD1B2" rx="11" ry="11" style="stroke: #A80036; stroke-width: 1.0;"/><path d="M23.9688,245.6406 Q23.3906,245.9375 22.75,246.0781 Q22.1094,246.2344 21.4063,246.2344 Q18.9063,246.2344 17.5781,244.5938 Q16.2656,242.9375 16.2656,239.8125 Q16.2656,236.6875 17.5781,235.0313 Q18.9063,233.375 21.4063,233.375 Q22.1094,233.375 22.75,233.5313 Q23.4063,233.6875 23.9688,233.9844 L23.9688,236.7031 Q23.3438,236.125 22.75,235.8594 Q22.1563,235.5781 21.5313,235.5781 Q20.1875,235.5781 19.5,236.6563 Q18.8125,237.7188 18.8125,239.8125 Q18.8125,241.9063 19.5,242.9844 Q20.1875,244.0469 21.5313,244.0469 Q22.1563,244.0469 22.75,243.7813 Q23.3438,243.5 23.9688,242.9219 L23.9688,245.6406 Z "/><text fill="#000000" font-family="sans-serif" font-size="12" lengthAdjust="spacingAndGlyphs" textLength="63" x="35" y="244.1543">Transform</text><line style="stroke: #A80036; stroke-width: 1.5;" x1="7" x2="100" y1="256" y2="256"/><line style="stroke: #A80036; stroke-width: 1.5;" x1="7" x2="100" y1="264" y2="264"/><!--MD5=[85c2ed8dbf494cb60783de624603a7dd]
class Sprite--><rect fill="#FEFECE" filter="url(#f4lh2vxbhmbsq)" height="48" id="Sprite" style="stroke: #A80036; stroke-width: 1.5;" width="69" x="136" y="224"/><ellipse cx="151" cy="240" fill="#ADD1B2" rx="11" ry="11" style="stroke: #A80036; stroke-width: 1.0;"/><path d="M153.9688,245.6406 Q153.3906,245.9375 152.75,246.0781 Q152.1094,246.2344 151.4063,246.2344 Q148.9063,246.2344 147.5781,244.5938 Q146.2656,242.9375 146.2656,239.8125 Q146.2656,236.6875 147.5781,235.0313 Q148.9063,233.375 151.4063,233.375 Q152.1094,233.375 152.75,233.5313 Q153.4063,233.6875 153.9688,233.9844 L153.9688,236.7031 Q153.3438,236.125 152.75,235.8594 Q152.1563,235.5781 151.5313,235.5781 Q150.1875,235.5781 149.5,236.6563 Q148.8125,237.7188 148.8125,239.8125 Q148.8125,241.9063 149.5,242.9844 Q150.1875,244.0469 151.5313,244.0469 Q152.1563,244.0469 152.75,243.7813 Q153.3438,243.5 153.9688,242.9219 L153.9688,245.6406 Z "/><text fill="#000000" font-family="sans-serif" font-size="12" lengthAdjust="spacingAndGlyphs" textLength="37" x="165" y="244.1543">Sprite</text><line style="stroke: #A80036; stroke-width: 1.5;" x1="137" x2="204" y1="256" y2="256"/><line style="stroke: #A80036; stroke-width: 1.5;" x1="137" x2="204" y1="264" y2="264"/><!--MD5=[1f90590154c003213e76a615998a28f2]
reverse link ScriptableObject to BuildingSO--><path d="M111.5,76.02 C111.5,89.58 111.5,104.04 111.5,115.68 " fill="none" id="ScriptableObject&lt;-BuildingSO" style="stroke: #A80036; stroke-width: 1.0;"/><polygon fill="none" points="104.5,76,111.5,56,118.5,76,104.5,76" style="stroke: #A80036; stroke-width: 1.0;"/><!--MD5=[b5eb735c52dc5ed8c9c0b8a513cf692d]
link BuildingSO to Transform--><path d="M98.91,164 C90.08,180.14 78.22,201.82 68.84,218.97 " fill="none" id="BuildingSO-&gt;Transform" style="stroke: #A80036; stroke-width: 1.0;"/><polygon fill="#A80036" points="66.26,223.68,74.0894,217.7051,68.6603,219.2938,67.0715,213.8646,66.26,223.68" style="stroke: #A80036; stroke-width: 1.0;"/><text fill="#000000" font-family="sans-serif" font-size="13" lengthAdjust="spacingAndGlyphs" textLength="25" x="41.3234" y="213.007">pref</text><!--MD5=[4275b302388d7555794f35145ff682f3]
link BuildingSO to Sprite--><path d="M124.3,164 C133.29,180.14 145.35,201.82 154.9,218.97 " fill="none" id="BuildingSO-&gt;Sprite" style="stroke: #A80036; stroke-width: 1.0;"/><polygon fill="#A80036" points="157.52,223.68,156.6458,213.87,155.0918,219.3092,149.6526,217.7552,157.52,223.68" style="stroke: #A80036; stroke-width: 1.0;"/><text fill="#000000" font-family="sans-serif" font-size="13" lengthAdjust="spacingAndGlyphs" textLength="36" x="113.9686" y="213.007">sprite</text><!--MD5=[7f64eaf4430b51a27938cbcdc30216ba]
@startuml
class BuildingSO {
}
ScriptableObject <|- - BuildingSO
BuildingSO - -> "pref" Transform
BuildingSO - -> "sprite" Sprite
@enduml

PlantUML version 1.2020.02(Sun Mar 01 10:22:07 GMT 2020)
(GPL source distribution)
Java Runtime: OpenJDK Runtime Environment
JVM: OpenJDK 64-Bit Server VM
Java Version: 11.0.9+11-Ubuntu-0ubuntu1
Operating System: Linux
Default Encoding: ANSI_X3.4-1968
Language: en
Country: US
--></g></svg>