<?xml version="1.0" encoding="UTF-8" standalone="no"?><svg xmlns="http://www.w3.org/2000/svg" xmlns:xlink="http://www.w3.org/1999/xlink" contentScriptType="application/ecmascript" contentStyleType="text/css" height="283px" preserveAspectRatio="none" style="width:226px;height:283px;" version="1.1" viewBox="0 0 226 283" width="226px" zoomAndPan="magnify"><defs><filter height="300%" id="f1o71cvmb5llcj" width="300%" x="-1" y="-1"><feGaussianBlur result="blurOut" stdDeviation="2.0"/><feColorMatrix in="blurOut" result="blurOut2" type="matrix" values="0 0 0 0 0 0 0 0 0 0 0 0 0 0 0 0 0 0 .4 0"/><feOffset dx="4.0" dy="4.0" in="blurOut2" result="blurOut3"/><feBlend in="SourceGraphic" in2="blurOut3" mode="normal"/></filter></defs><g><!--MD5=[29c023fee1073807b6983fe5add43278]
class NecessaryResources--><rect fill="#FEFECE" filter="url(#f1o71cvmb5llcj)" height="48" id="NecessaryResources" style="stroke: #A80036; stroke-width: 1.5;" width="163" x="36.27" y="116"/><ellipse cx="51.27" cy="132" fill="#ADD1B2" rx="11" ry="11" style="stroke: #A80036; stroke-width: 1.0;"/><path d="M54.2387,137.6406 Q53.6606,137.9375 53.02,138.0781 Q52.3794,138.2344 51.6762,138.2344 Q49.1762,138.2344 47.8481,136.5938 Q46.5356,134.9375 46.5356,131.8125 Q46.5356,128.6875 47.8481,127.0313 Q49.1762,125.375 51.6762,125.375 Q52.3794,125.375 53.02,125.5313 Q53.6762,125.6875 54.2387,125.9844 L54.2387,128.7031 Q53.6137,128.125 53.02,127.8594 Q52.4262,127.5781 51.8012,127.5781 Q50.4575,127.5781 49.77,128.6563 Q49.0825,129.7188 49.0825,131.8125 Q49.0825,133.9063 49.77,134.9844 Q50.4575,136.0469 51.8012,136.0469 Q52.4262,136.0469 53.02,135.7813 Q53.6137,135.5 54.2387,134.9219 L54.2387,137.6406 Z "/><text fill="#000000" font-family="sans-serif" font-size="12" lengthAdjust="spacingAndGlyphs" textLength="131" x="65.27" y="136.1543">NecessaryResources</text><line style="stroke: #A80036; stroke-width: 1.5;" x1="37.27" x2="198.27" y1="148" y2="148"/><line style="stroke: #A80036; stroke-width: 1.5;" x1="37.27" x2="198.27" y1="156" y2="156"/><!--MD5=[e644022de7dea015dd09463c37421447]
class List`1--><rect fill="#FEFECE" filter="url(#f1o71cvmb5llcj)" height="48" id="List`1" style="stroke: #A80036; stroke-width: 1.5;" width="78" x="78.77" y="224"/><ellipse cx="93.77" cy="240" fill="#ADD1B2" rx="11" ry="11" style="stroke: #A80036; stroke-width: 1.0;"/><path d="M96.7388,245.6406 Q96.1606,245.9375 95.52,246.0781 Q94.8794,246.2344 94.1763,246.2344 Q91.6763,246.2344 90.3481,244.5938 Q89.0356,242.9375 89.0356,239.8125 Q89.0356,236.6875 90.3481,235.0313 Q91.6763,233.375 94.1763,233.375 Q94.8794,233.375 95.52,233.5313 Q96.1763,233.6875 96.7388,233.9844 L96.7388,236.7031 Q96.1138,236.125 95.52,235.8594 Q94.9263,235.5781 94.3013,235.5781 Q92.9575,235.5781 92.27,236.6563 Q91.5825,237.7188 91.5825,239.8125 Q91.5825,241.9063 92.27,242.9844 Q92.9575,244.0469 94.3013,244.0469 Q94.9263,244.0469 95.52,243.7813 Q96.1138,243.5 96.7388,242.9219 L96.7388,245.6406 Z "/><text fill="#000000" font-family="sans-serif" font-size="12" lengthAdjust="spacingAndGlyphs" textLength="35" x="107.77" y="244.1543">List`1</text><rect fill="#FFFFFF" height="15.9688" style="stroke: #000000; stroke-width: 1.0; stroke-dasharray: 2.0,2.0;" width="9" x="150.77" y="221"/><text fill="#000000" font-family="sans-serif" font-size="12" font-style="italic" lengthAdjust="spacingAndGlyphs" textLength="7" x="151.77" y="233.1387">T</text><line style="stroke: #A80036; stroke-width: 1.5;" x1="79.77" x2="155.77" y1="256" y2="256"/><line style="stroke: #A80036; stroke-width: 1.5;" x1="79.77" x2="155.77" y1="264" y2="264"/><!--MD5=[83b3cf3d23d77c6f1e1b5291a241bc2a]
class MonoBehaviour--><rect fill="#FEFECE" filter="url(#f1o71cvmb5llcj)" height="48" id="MonoBehaviour" style="stroke: #A80036; stroke-width: 1.5;" width="128" x="53.77" y="8"/><ellipse cx="68.77" cy="24" fill="#ADD1B2" rx="11" ry="11" style="stroke: #A80036; stroke-width: 1.0;"/><path d="M71.7388,29.6406 Q71.1606,29.9375 70.52,30.0781 Q69.8794,30.2344 69.1763,30.2344 Q66.6763,30.2344 65.3481,28.5938 Q64.0356,26.9375 64.0356,23.8125 Q64.0356,20.6875 65.3481,19.0313 Q66.6763,17.375 69.1763,17.375 Q69.8794,17.375 70.52,17.5313 Q71.1763,17.6875 71.7388,17.9844 L71.7388,20.7031 Q71.1138,20.125 70.52,19.8594 Q69.9263,19.5781 69.3013,19.5781 Q67.9575,19.5781 67.27,20.6563 Q66.5825,21.7188 66.5825,23.8125 Q66.5825,25.9063 67.27,26.9844 Q67.9575,28.0469 69.3013,28.0469 Q69.9263,28.0469 70.52,27.7813 Q71.1138,27.5 71.7388,26.9219 L71.7388,29.6406 Z "/><text fill="#000000" font-family="sans-serif" font-size="12" lengthAdjust="spacingAndGlyphs" textLength="96" x="82.77" y="28.1543">MonoBehaviour</text><line style="stroke: #A80036; stroke-width: 1.5;" x1="54.77" x2="180.77" y1="40" y2="40"/><line style="stroke: #A80036; stroke-width: 1.5;" x1="54.77" x2="180.77" y1="48" y2="48"/><!--MD5=[067e99d943024765bdb677e2e4aa168b]
reverse link MonoBehaviour to NecessaryResources--><path d="M117.77,76.02 C117.77,89.58 117.77,104.04 117.77,115.68 " fill="none" id="MonoBehaviour&lt;-NecessaryResources" style="stroke: #A80036; stroke-width: 1.0;"/><polygon fill="none" points="110.77,76,117.77,56,124.77,76,110.77,76" style="stroke: #A80036; stroke-width: 1.0;"/><!--MD5=[6fd43bc9f197d78c8e98d99341c9ac39]
link NecessaryResources to List`1--><path d="M107.05,164 C104.62,180 104.38,201.45 106.32,218.53 " fill="none" id="NecessaryResources-&gt;List`1" style="stroke: #A80036; stroke-width: 1.0;"/><polygon fill="#A80036" points="107,223.68,109.7861,214.2334,106.3448,218.7231,101.8551,215.2818,107,223.68" style="stroke: #A80036; stroke-width: 1.0;"/><text fill="#000000" font-family="sans-serif" font-size="13" lengthAdjust="spacingAndGlyphs" textLength="86" x="7.8936" y="213.007">type&lt;string&gt;</text><!--MD5=[6fd43bc9f197d78c8e98d99341c9ac39]
link NecessaryResources to List`1--><path d="M129.13,164 C131.71,180 131.96,201.45 129.9,218.53 " fill="none" id="NecessaryResources-&gt;List`1-1" style="stroke: #A80036; stroke-width: 1.0;"/><polygon fill="#A80036" points="129.18,223.68,134.3788,215.315,129.8671,218.7274,126.4547,214.2157,129.18,223.68" style="stroke: #A80036; stroke-width: 1.0;"/><text fill="#000000" font-family="sans-serif" font-size="13" lengthAdjust="spacingAndGlyphs" textLength="74" x="140.9799" y="213.007">count&lt;int&gt;</text><!--MD5=[066611dda4b249e4be7890888e3d1361]
@startuml
class NecessaryResources {
}
class "List`1"<T> {
}
MonoBehaviour <|- - NecessaryResources
NecessaryResources - -> "type<string>" "List`1"
NecessaryResources - -> "count<int>" "List`1"
@enduml

PlantUML version 1.2020.02(Sun Mar 01 10:22:07 GMT 2020)
(GPL source distribution)
Java Runtime: OpenJDK Runtime Environment
JVM: OpenJDK 64-Bit Server VM
Java Version: 11.0.9+11-Ubuntu-0ubuntu1
Operating System: Linux
Default Encoding: ANSI_X3.4-1968
Language: en
Country: US
--></g></svg>