<?xml version="1.0" encoding="UTF-8" standalone="no"?><svg xmlns="http://www.w3.org/2000/svg" xmlns:xlink="http://www.w3.org/1999/xlink" contentScriptType="application/ecmascript" contentStyleType="text/css" height="283px" preserveAspectRatio="none" style="width:174px;height:283px;" version="1.1" viewBox="0 0 174 283" width="174px" zoomAndPan="magnify"><defs><filter height="300%" id="fjgj0q612lexd" width="300%" x="-1" y="-1"><feGaussianBlur result="blurOut" stdDeviation="2.0"/><feColorMatrix in="blurOut" result="blurOut2" type="matrix" values="0 0 0 0 0 0 0 0 0 0 0 0 0 0 0 0 0 0 .4 0"/><feOffset dx="4.0" dy="4.0" in="blurOut2" result="blurOut3"/><feBlend in="SourceGraphic" in2="blurOut3" mode="normal"/></filter></defs><g><!--MD5=[f2dafe9da0d734e63de3429dd6e961a6]
class SpawnTower--><rect fill="#FEFECE" filter="url(#fjgj0q612lexd)" height="48" id="SpawnTower" style="stroke: #A80036; stroke-width: 1.5;" width="110" x="44" y="116"/><ellipse cx="59" cy="132" fill="#ADD1B2" rx="11" ry="11" style="stroke: #A80036; stroke-width: 1.0;"/><path d="M61.9688,137.6406 Q61.3906,137.9375 60.75,138.0781 Q60.1094,138.2344 59.4063,138.2344 Q56.9063,138.2344 55.5781,136.5938 Q54.2656,134.9375 54.2656,131.8125 Q54.2656,128.6875 55.5781,127.0313 Q56.9063,125.375 59.4063,125.375 Q60.1094,125.375 60.75,125.5313 Q61.4063,125.6875 61.9688,125.9844 L61.9688,128.7031 Q61.3438,128.125 60.75,127.8594 Q60.1563,127.5781 59.5313,127.5781 Q58.1875,127.5781 57.5,128.6563 Q56.8125,129.7188 56.8125,131.8125 Q56.8125,133.9063 57.5,134.9844 Q58.1875,136.0469 59.5313,136.0469 Q60.1563,136.0469 60.75,135.7813 Q61.3438,135.5 61.9688,134.9219 L61.9688,137.6406 Z "/><text fill="#000000" font-family="sans-serif" font-size="12" lengthAdjust="spacingAndGlyphs" textLength="78" x="73" y="136.1543">SpawnTower</text><line style="stroke: #A80036; stroke-width: 1.5;" x1="45" x2="153" y1="148" y2="148"/><line style="stroke: #A80036; stroke-width: 1.5;" x1="45" x2="153" y1="156" y2="156"/><!--MD5=[83b3cf3d23d77c6f1e1b5291a241bc2a]
class MonoBehaviour--><rect fill="#FEFECE" filter="url(#fjgj0q612lexd)" height="48" id="MonoBehaviour" style="stroke: #A80036; stroke-width: 1.5;" width="128" x="35" y="8"/><ellipse cx="50" cy="24" fill="#ADD1B2" rx="11" ry="11" style="stroke: #A80036; stroke-width: 1.0;"/><path d="M52.9688,29.6406 Q52.3906,29.9375 51.75,30.0781 Q51.1094,30.2344 50.4063,30.2344 Q47.9063,30.2344 46.5781,28.5938 Q45.2656,26.9375 45.2656,23.8125 Q45.2656,20.6875 46.5781,19.0313 Q47.9063,17.375 50.4063,17.375 Q51.1094,17.375 51.75,17.5313 Q52.4063,17.6875 52.9688,17.9844 L52.9688,20.7031 Q52.3438,20.125 51.75,19.8594 Q51.1563,19.5781 50.5313,19.5781 Q49.1875,19.5781 48.5,20.6563 Q47.8125,21.7188 47.8125,23.8125 Q47.8125,25.9063 48.5,26.9844 Q49.1875,28.0469 50.5313,28.0469 Q51.1563,28.0469 51.75,27.7813 Q52.3438,27.5 52.9688,26.9219 L52.9688,29.6406 Z "/><text fill="#000000" font-family="sans-serif" font-size="12" lengthAdjust="spacingAndGlyphs" textLength="96" x="64" y="28.1543">MonoBehaviour</text><line style="stroke: #A80036; stroke-width: 1.5;" x1="36" x2="162" y1="40" y2="40"/><line style="stroke: #A80036; stroke-width: 1.5;" x1="36" x2="162" y1="48" y2="48"/><!--MD5=[3b9a5953379d697aeac69362be5c4cf2]
class BuildingSO--><rect fill="#FEFECE" filter="url(#fjgj0q612lexd)" height="48" id="BuildingSO" style="stroke: #A80036; stroke-width: 1.5;" width="98" x="50" y="224"/><ellipse cx="65" cy="240" fill="#ADD1B2" rx="11" ry="11" style="stroke: #A80036; stroke-width: 1.0;"/><path d="M67.9688,245.6406 Q67.3906,245.9375 66.75,246.0781 Q66.1094,246.2344 65.4063,246.2344 Q62.9063,246.2344 61.5781,244.5938 Q60.2656,242.9375 60.2656,239.8125 Q60.2656,236.6875 61.5781,235.0313 Q62.9063,233.375 65.4063,233.375 Q66.1094,233.375 66.75,233.5313 Q67.4063,233.6875 67.9688,233.9844 L67.9688,236.7031 Q67.3438,236.125 66.75,235.8594 Q66.1563,235.5781 65.5313,235.5781 Q64.1875,235.5781 63.5,236.6563 Q62.8125,237.7188 62.8125,239.8125 Q62.8125,241.9063 63.5,242.9844 Q64.1875,244.0469 65.5313,244.0469 Q66.1563,244.0469 66.75,243.7813 Q67.3438,243.5 67.9688,242.9219 L67.9688,245.6406 Z "/><text fill="#000000" font-family="sans-serif" font-size="12" lengthAdjust="spacingAndGlyphs" textLength="66" x="79" y="244.1543">BuildingSO</text><line style="stroke: #A80036; stroke-width: 1.5;" x1="51" x2="147" y1="256" y2="256"/><line style="stroke: #A80036; stroke-width: 1.5;" x1="51" x2="147" y1="264" y2="264"/><!--MD5=[7f50348604a4da53589ed3f5b90d126c]
reverse link MonoBehaviour to SpawnTower--><path d="M99,76.02 C99,89.58 99,104.04 99,115.68 " fill="none" id="MonoBehaviour&lt;-SpawnTower" style="stroke: #A80036; stroke-width: 1.0;"/><polygon fill="none" points="92,76,99,56,106,76,92,76" style="stroke: #A80036; stroke-width: 1.0;"/><!--MD5=[ff762bea4413d695fcee009f54f63302]
link SpawnTower to BuildingSO--><path d="M99,164 C99,180 99,201.45 99,218.53 " fill="none" id="SpawnTower-&gt;BuildingSO" style="stroke: #A80036; stroke-width: 1.0;"/><polygon fill="#A80036" points="99,223.68,103,214.68,99,218.68,95,214.68,99,223.68" style="stroke: #A80036; stroke-width: 1.0;"/><text fill="#000000" font-family="sans-serif" font-size="13" lengthAdjust="spacingAndGlyphs" textLength="78" x="11.4938" y="213.007">ObjToSpawn</text><!--MD5=[aa99f1c22bf53c742da9b8ff2c7088ec]
@startuml
class SpawnTower {
}
MonoBehaviour <|- - SpawnTower
SpawnTower - -> "ObjToSpawn" BuildingSO
@enduml

PlantUML version 1.2020.02(Sun Mar 01 10:22:07 GMT 2020)
(GPL source distribution)
Java Runtime: OpenJDK Runtime Environment
JVM: OpenJDK 64-Bit Server VM
Java Version: 11.0.9+11-Ubuntu-0ubuntu1
Operating System: Linux
Default Encoding: ANSI_X3.4-1968
Language: en
Country: US
--></g></svg>