<?xml version="1.0" encoding="UTF-8" standalone="no"?><svg xmlns="http://www.w3.org/2000/svg" xmlns:xlink="http://www.w3.org/1999/xlink" contentScriptType="application/ecmascript" contentStyleType="text/css" height="283px" preserveAspectRatio="none" style="width:181px;height:283px;" version="1.1" viewBox="0 0 181 283" width="181px" zoomAndPan="magnify"><defs><filter height="300%" id="fxbenh94sdy00" width="300%" x="-1" y="-1"><feGaussianBlur result="blurOut" stdDeviation="2.0"/><feColorMatrix in="blurOut" result="blurOut2" type="matrix" values="0 0 0 0 0 0 0 0 0 0 0 0 0 0 0 0 0 0 .4 0"/><feOffset dx="4.0" dy="4.0" in="blurOut2" result="blurOut3"/><feBlend in="SourceGraphic" in2="blurOut3" mode="normal"/></filter></defs><g><!--MD5=[81e552470b8334e10792ee282e5e618f]
class ResourceListUIScript--><rect fill="#FEFECE" filter="url(#fxbenh94sdy00)" height="48" id="ResourceListUIScript" style="stroke: #A80036; stroke-width: 1.5;" width="160" x="10" y="116"/><ellipse cx="25" cy="132" fill="#ADD1B2" rx="11" ry="11" style="stroke: #A80036; stroke-width: 1.0;"/><path d="M27.9688,137.6406 Q27.3906,137.9375 26.75,138.0781 Q26.1094,138.2344 25.4063,138.2344 Q22.9063,138.2344 21.5781,136.5938 Q20.2656,134.9375 20.2656,131.8125 Q20.2656,128.6875 21.5781,127.0313 Q22.9063,125.375 25.4063,125.375 Q26.1094,125.375 26.75,125.5313 Q27.4063,125.6875 27.9688,125.9844 L27.9688,128.7031 Q27.3438,128.125 26.75,127.8594 Q26.1563,127.5781 25.5313,127.5781 Q24.1875,127.5781 23.5,128.6563 Q22.8125,129.7188 22.8125,131.8125 Q22.8125,133.9063 23.5,134.9844 Q24.1875,136.0469 25.5313,136.0469 Q26.1563,136.0469 26.75,135.7813 Q27.3438,135.5 27.9688,134.9219 L27.9688,137.6406 Z "/><text fill="#000000" font-family="sans-serif" font-size="12" lengthAdjust="spacingAndGlyphs" textLength="128" x="39" y="136.1543">ResourceListUIScript</text><line style="stroke: #A80036; stroke-width: 1.5;" x1="11" x2="169" y1="148" y2="148"/><line style="stroke: #A80036; stroke-width: 1.5;" x1="11" x2="169" y1="156" y2="156"/><!--MD5=[83b3cf3d23d77c6f1e1b5291a241bc2a]
class MonoBehaviour--><rect fill="#FEFECE" filter="url(#fxbenh94sdy00)" height="48" id="MonoBehaviour" style="stroke: #A80036; stroke-width: 1.5;" width="128" x="26" y="8"/><ellipse cx="41" cy="24" fill="#ADD1B2" rx="11" ry="11" style="stroke: #A80036; stroke-width: 1.0;"/><path d="M43.9688,29.6406 Q43.3906,29.9375 42.75,30.0781 Q42.1094,30.2344 41.4063,30.2344 Q38.9063,30.2344 37.5781,28.5938 Q36.2656,26.9375 36.2656,23.8125 Q36.2656,20.6875 37.5781,19.0313 Q38.9063,17.375 41.4063,17.375 Q42.1094,17.375 42.75,17.5313 Q43.4063,17.6875 43.9688,17.9844 L43.9688,20.7031 Q43.3438,20.125 42.75,19.8594 Q42.1563,19.5781 41.5313,19.5781 Q40.1875,19.5781 39.5,20.6563 Q38.8125,21.7188 38.8125,23.8125 Q38.8125,25.9063 39.5,26.9844 Q40.1875,28.0469 41.5313,28.0469 Q42.1563,28.0469 42.75,27.7813 Q43.3438,27.5 43.9688,26.9219 L43.9688,29.6406 Z "/><text fill="#000000" font-family="sans-serif" font-size="12" lengthAdjust="spacingAndGlyphs" textLength="96" x="55" y="28.1543">MonoBehaviour</text><line style="stroke: #A80036; stroke-width: 1.5;" x1="27" x2="153" y1="40" y2="40"/><line style="stroke: #A80036; stroke-width: 1.5;" x1="27" x2="153" y1="48" y2="48"/><!--MD5=[064f7a74fee85463ec1a30143664ee17]
class GameObject--><rect fill="#FEFECE" filter="url(#fxbenh94sdy00)" height="48" id="GameObject" style="stroke: #A80036; stroke-width: 1.5;" width="108" x="36" y="224"/><ellipse cx="51" cy="240" fill="#ADD1B2" rx="11" ry="11" style="stroke: #A80036; stroke-width: 1.0;"/><path d="M53.9688,245.6406 Q53.3906,245.9375 52.75,246.0781 Q52.1094,246.2344 51.4063,246.2344 Q48.9063,246.2344 47.5781,244.5938 Q46.2656,242.9375 46.2656,239.8125 Q46.2656,236.6875 47.5781,235.0313 Q48.9063,233.375 51.4063,233.375 Q52.1094,233.375 52.75,233.5313 Q53.4063,233.6875 53.9688,233.9844 L53.9688,236.7031 Q53.3438,236.125 52.75,235.8594 Q52.1563,235.5781 51.5313,235.5781 Q50.1875,235.5781 49.5,236.6563 Q48.8125,237.7188 48.8125,239.8125 Q48.8125,241.9063 49.5,242.9844 Q50.1875,244.0469 51.5313,244.0469 Q52.1563,244.0469 52.75,243.7813 Q53.3438,243.5 53.9688,242.9219 L53.9688,245.6406 Z "/><text fill="#000000" font-family="sans-serif" font-size="12" lengthAdjust="spacingAndGlyphs" textLength="76" x="65" y="244.1543">GameObject</text><line style="stroke: #A80036; stroke-width: 1.5;" x1="37" x2="143" y1="256" y2="256"/><line style="stroke: #A80036; stroke-width: 1.5;" x1="37" x2="143" y1="264" y2="264"/><!--MD5=[073081fa4ecd1b8b6fb8aa27690a5005]
reverse link MonoBehaviour to ResourceListUIScript--><path d="M90,76.02 C90,89.58 90,104.04 90,115.68 " fill="none" id="MonoBehaviour&lt;-ResourceListUIScript" style="stroke: #A80036; stroke-width: 1.0;"/><polygon fill="none" points="83,76,90,56,97,76,83,76" style="stroke: #A80036; stroke-width: 1.0;"/><!--MD5=[f3870518ec86febc979b5f1d087195a8]
link ResourceListUIScript to GameObject--><path d="M90,164 C90,180 90,201.45 90,218.53 " fill="none" id="ResourceListUIScript-&gt;GameObject" style="stroke: #A80036; stroke-width: 1.0;"/><polygon fill="#A80036" points="90,223.68,94,214.68,90,218.68,86,214.68,90,223.68" style="stroke: #A80036; stroke-width: 1.0;"/><text fill="#000000" font-family="sans-serif" font-size="13" lengthAdjust="spacingAndGlyphs" textLength="69" x="12.5906" y="213.007">resourceUi</text><!--MD5=[09fffedf894b73df14e27c20d60367ce]
@startuml
class ResourceListUIScript {
}
MonoBehaviour <|- - ResourceListUIScript
ResourceListUIScript - -> "resourceUi" GameObject
@enduml

PlantUML version 1.2020.02(Sun Mar 01 10:22:07 GMT 2020)
(GPL source distribution)
Java Runtime: OpenJDK Runtime Environment
JVM: OpenJDK 64-Bit Server VM
Java Version: 11.0.9+11-Ubuntu-0ubuntu1
Operating System: Linux
Default Encoding: ANSI_X3.4-1968
Language: en
Country: US
--></g></svg>