<?xml version="1.0" encoding="UTF-8" standalone="no"?><svg xmlns="http://www.w3.org/2000/svg" xmlns:xlink="http://www.w3.org/1999/xlink" contentScriptType="application/ecmascript" contentStyleType="text/css" height="347px" preserveAspectRatio="none" style="width:224px;height:347px;" version="1.1" viewBox="0 0 224 347" width="224px" zoomAndPan="magnify"><defs><filter height="300%" id="fv2d6rtsy4eyh" width="300%" x="-1" y="-1"><feGaussianBlur result="blurOut" stdDeviation="2.0"/><feColorMatrix in="blurOut" result="blurOut2" type="matrix" values="0 0 0 0 0 0 0 0 0 0 0 0 0 0 0 0 0 0 .4 0"/><feOffset dx="4.0" dy="4.0" in="blurOut2" result="blurOut3"/><feBlend in="SourceGraphic" in2="blurOut3" mode="normal"/></filter></defs><g><!--MD5=[06339ab115545f6ee6eff5f9577315b5]
class UIScript--><rect fill="#FEFECE" filter="url(#fv2d6rtsy4eyh)" height="73.6094" id="UIScript" style="stroke: #A80036; stroke-width: 1.5;" width="207" x="6" y="116"/><ellipse cx="81.25" cy="132" fill="#ADD1B2" rx="11" ry="11" style="stroke: #A80036; stroke-width: 1.0;"/><path d="M84.2188,137.6406 Q83.6406,137.9375 83,138.0781 Q82.3594,138.2344 81.6563,138.2344 Q79.1563,138.2344 77.8281,136.5938 Q76.5156,134.9375 76.5156,131.8125 Q76.5156,128.6875 77.8281,127.0313 Q79.1563,125.375 81.6563,125.375 Q82.3594,125.375 83,125.5313 Q83.6563,125.6875 84.2188,125.9844 L84.2188,128.7031 Q83.5938,128.125 83,127.8594 Q82.4063,127.5781 81.7813,127.5781 Q80.4375,127.5781 79.75,128.6563 Q79.0625,129.7188 79.0625,131.8125 Q79.0625,133.9063 79.75,134.9844 Q80.4375,136.0469 81.7813,136.0469 Q82.4063,136.0469 83,135.7813 Q83.5938,135.5 84.2188,134.9219 L84.2188,137.6406 Z "/><text fill="#000000" font-family="sans-serif" font-size="12" lengthAdjust="spacingAndGlyphs" textLength="48" x="101.75" y="136.1543">UIScript</text><line style="stroke: #A80036; stroke-width: 1.5;" x1="7" x2="212" y1="148" y2="148"/><line style="stroke: #A80036; stroke-width: 1.5;" x1="7" x2="212" y1="156" y2="156"/><ellipse cx="17" cy="167" fill="#84BE84" rx="3" ry="3" style="stroke: #038048; stroke-width: 1.0;"/><text fill="#000000" font-family="sans-serif" font-size="11" lengthAdjust="spacingAndGlyphs" textLength="159" x="26" y="170.2104">SetHealth(amount:int) : void</text><ellipse cx="17" cy="179.8047" fill="#84BE84" rx="3" ry="3" style="stroke: #038048; stroke-width: 1.0;"/><text fill="#000000" font-family="sans-serif" font-size="11" lengthAdjust="spacingAndGlyphs" textLength="181" x="26" y="183.0151">ChangeHealth(change:int) : void</text><!--MD5=[351e6187e19f8d3cd8e20f98c583db53]
class GameType--><rect fill="#FEFECE" filter="url(#fv2d6rtsy4eyh)" height="86.4141" id="GameType" style="stroke: #A80036; stroke-width: 1.5;" width="97" x="61" y="250"/><ellipse cx="76" cy="266" fill="#EB937F" rx="11" ry="11" style="stroke: #A80036; stroke-width: 1.0;"/><path d="M80.1094,272 L72.3906,272 L72.3906,259.6094 L80.1094,259.6094 L80.1094,261.7656 L74.8438,261.7656 L74.8438,264.4375 L79.6094,264.4375 L79.6094,266.5938 L74.8438,266.5938 L74.8438,269.8438 L80.1094,269.8438 L80.1094,272 Z "/><text fill="#000000" font-family="sans-serif" font-size="12" lengthAdjust="spacingAndGlyphs" textLength="65" x="90" y="270.1543">GameType</text><line style="stroke: #A80036; stroke-width: 1.5;" x1="62" x2="157" y1="282" y2="282"/><text fill="#000000" font-family="sans-serif" font-size="11" lengthAdjust="spacingAndGlyphs" textLength="57" x="67" y="296.2104">Score= 0,</text><text fill="#000000" font-family="sans-serif" font-size="11" lengthAdjust="spacingAndGlyphs" textLength="24" x="67" y="309.0151">Life,</text><text fill="#000000" font-family="sans-serif" font-size="11" lengthAdjust="spacingAndGlyphs" textLength="49" x="67" y="321.8198">Endless,</text><line style="stroke: #A80036; stroke-width: 1.5;" x1="62" x2="157" y1="328.4141" y2="328.4141"/><!--MD5=[83b3cf3d23d77c6f1e1b5291a241bc2a]
class MonoBehaviour--><rect fill="#FEFECE" filter="url(#fv2d6rtsy4eyh)" height="48" id="MonoBehaviour" style="stroke: #A80036; stroke-width: 1.5;" width="128" x="45.5" y="8"/><ellipse cx="60.5" cy="24" fill="#ADD1B2" rx="11" ry="11" style="stroke: #A80036; stroke-width: 1.0;"/><path d="M63.4688,29.6406 Q62.8906,29.9375 62.25,30.0781 Q61.6094,30.2344 60.9063,30.2344 Q58.4063,30.2344 57.0781,28.5938 Q55.7656,26.9375 55.7656,23.8125 Q55.7656,20.6875 57.0781,19.0313 Q58.4063,17.375 60.9063,17.375 Q61.6094,17.375 62.25,17.5313 Q62.9063,17.6875 63.4688,17.9844 L63.4688,20.7031 Q62.8438,20.125 62.25,19.8594 Q61.6563,19.5781 61.0313,19.5781 Q59.6875,19.5781 59,20.6563 Q58.3125,21.7188 58.3125,23.8125 Q58.3125,25.9063 59,26.9844 Q59.6875,28.0469 61.0313,28.0469 Q61.6563,28.0469 62.25,27.7813 Q62.8438,27.5 63.4688,26.9219 L63.4688,29.6406 Z "/><text fill="#000000" font-family="sans-serif" font-size="12" lengthAdjust="spacingAndGlyphs" textLength="96" x="74.5" y="28.1543">MonoBehaviour</text><line style="stroke: #A80036; stroke-width: 1.5;" x1="46.5" x2="172.5" y1="40" y2="40"/><line style="stroke: #A80036; stroke-width: 1.5;" x1="46.5" x2="172.5" y1="48" y2="48"/><!--MD5=[61199a676f11673651947fd86954d5ba]
reverse link MonoBehaviour to UIScript--><path d="M109.5,76.43 C109.5,89.33 109.5,103.32 109.5,115.71 " fill="none" id="MonoBehaviour&lt;-UIScript" style="stroke: #A80036; stroke-width: 1.0;"/><polygon fill="none" points="102.5,76.23,109.5,56.23,116.5,76.23,102.5,76.23" style="stroke: #A80036; stroke-width: 1.0;"/><!--MD5=[bd08b3878358ee26ccecc2edf95447e8]
reverse link UIScript to GameType--><path d="M109.5,205.47 C109.5,220.02 109.5,235.68 109.5,249.62 " fill="none" id="UIScript&lt;-GameType" style="stroke: #A80036; stroke-width: 1.0;"/><ellipse cx="109.5" cy="198.26" fill="#FFFFFF" rx="8" ry="8" style="stroke: #A80036; stroke-width: 1.0;"/><line style="stroke: #A80036; stroke-width: 1.0;" x1="109.5" x2="109.5" y1="206.26" y2="190.26"/><line style="stroke: #A80036; stroke-width: 1.0;" x1="101.5" x2="117.5" y1="198.26" y2="198.26"/><!--MD5=[54cd93a6eb502b403bc106fbd714f275]
@startuml
class UIScript {
    + SetHealth(amount:int) : void
    + ChangeHealth(change:int) : void
}
enum GameType {
    Score= 0,
    Life,
    Endless,
}
MonoBehaviour <|- - UIScript
UIScript +- - GameType
@enduml

PlantUML version 1.2020.02(Sun Mar 01 10:22:07 GMT 2020)
(GPL source distribution)
Java Runtime: OpenJDK Runtime Environment
JVM: OpenJDK 64-Bit Server VM
Java Version: 11.0.9+11-Ubuntu-0ubuntu1
Operating System: Linux
Default Encoding: ANSI_X3.4-1968
Language: en
Country: US
--></g></svg>