<?xml version="1.0" encoding="UTF-8" standalone="no"?><svg xmlns="http://www.w3.org/2000/svg" xmlns:xlink="http://www.w3.org/1999/xlink" contentScriptType="application/ecmascript" contentStyleType="text/css" height="104px" preserveAspectRatio="none" style="width:245px;height:104px;" version="1.1" viewBox="0 0 245 104" width="245px" zoomAndPan="magnify"><defs><filter height="300%" id="fzkupunimfw5l" width="300%" x="-1" y="-1"><feGaussianBlur result="blurOut" stdDeviation="2.0"/><feColorMatrix in="blurOut" result="blurOut2" type="matrix" values="0 0 0 0 0 0 0 0 0 0 0 0 0 0 0 0 0 0 .4 0"/><feOffset dx="4.0" dy="4.0" in="blurOut2" result="blurOut3"/><feBlend in="SourceGraphic" in2="blurOut3" mode="normal"/></filter></defs><g><!--MD5=[b8e13241ee58acee74747146540bbddf]
class EffectList`1--><rect fill="#FEFECE" filter="url(#fzkupunimfw5l)" height="86.4141" id="EffectList`1" style="stroke: #A80036; stroke-width: 1.5;" width="224" x="7" y="7"/><ellipse cx="73.75" cy="23" fill="#ADD1B2" rx="11" ry="11" style="stroke: #A80036; stroke-width: 1.0;"/><path d="M76.7188,28.6406 Q76.1406,28.9375 75.5,29.0781 Q74.8594,29.2344 74.1563,29.2344 Q71.6563,29.2344 70.3281,27.5938 Q69.0156,25.9375 69.0156,22.8125 Q69.0156,19.6875 70.3281,18.0313 Q71.6563,16.375 74.1563,16.375 Q74.8594,16.375 75.5,16.5313 Q76.1563,16.6875 76.7188,16.9844 L76.7188,19.7031 Q76.0938,19.125 75.5,18.8594 Q74.9063,18.5781 74.2813,18.5781 Q72.9375,18.5781 72.25,19.6563 Q71.5625,20.7188 71.5625,22.8125 Q71.5625,24.9063 72.25,25.9844 Q72.9375,27.0469 74.2813,27.0469 Q74.9063,27.0469 75.5,26.7813 Q76.0938,26.5 76.7188,25.9219 L76.7188,28.6406 Z "/><text fill="#000000" font-family="sans-serif" font-size="12" lengthAdjust="spacingAndGlyphs" textLength="71" x="94.25" y="27.1543">EffectList`1</text><rect fill="#FFFFFF" height="15.9688" style="stroke: #000000; stroke-width: 1.0; stroke-dasharray: 2.0,2.0;" width="9" x="225" y="4"/><text fill="#000000" font-family="sans-serif" font-size="12" font-style="italic" lengthAdjust="spacingAndGlyphs" textLength="7" x="226" y="16.1387">T</text><line style="stroke: #A80036; stroke-width: 1.5;" x1="8" x2="230" y1="39" y2="39"/><line style="stroke: #A80036; stroke-width: 1.5;" x1="8" x2="230" y1="47" y2="47"/><ellipse cx="18" cy="58" fill="#84BE84" rx="3" ry="3" style="stroke: #038048; stroke-width: 1.0;"/><text fill="#000000" font-family="sans-serif" font-size="11" lengthAdjust="spacingAndGlyphs" textLength="130" x="27" y="61.2104">GetActiveEffect() : float</text><ellipse cx="18" cy="70.8047" fill="#84BE84" rx="3" ry="3" style="stroke: #038048; stroke-width: 1.0;"/><text fill="#000000" font-family="sans-serif" font-size="11" lengthAdjust="spacingAndGlyphs" textLength="90" x="27" y="74.0151">Add(eff:T) : void</text><ellipse cx="18" cy="83.6094" fill="#84BE84" rx="3" ry="3" style="stroke: #038048; stroke-width: 1.0;"/><text fill="#000000" font-family="sans-serif" font-size="11" lengthAdjust="spacingAndGlyphs" textLength="198" x="27" y="86.8198">ReduceEffectTime(time:float) : void</text><!--MD5=[614850dcb732082f6416cf64f59e7e99]
@startuml
class "EffectList`1"<T> {
    + GetActiveEffect() : float
    + Add(eff:T) : void
    + ReduceEffectTime(time:float) : void
}
@enduml

PlantUML version 1.2020.02(Sun Mar 01 10:22:07 GMT 2020)
(GPL source distribution)
Java Runtime: OpenJDK Runtime Environment
JVM: OpenJDK 64-Bit Server VM
Java Version: 11.0.9+11-Ubuntu-0ubuntu1
Operating System: Linux
Default Encoding: ANSI_X3.4-1968
Language: en
Country: US
--></g></svg>