<?xml version="1.0" encoding="UTF-8" standalone="no"?><svg xmlns="http://www.w3.org/2000/svg" xmlns:xlink="http://www.w3.org/1999/xlink" contentScriptType="application/ecmascript" contentStyleType="text/css" height="200px" preserveAspectRatio="none" style="width:164px;height:200px;" version="1.1" viewBox="0 0 164 200" width="164px" zoomAndPan="magnify"><defs><filter height="300%" id="f1vffy9b60krtd" width="300%" x="-1" y="-1"><feGaussianBlur result="blurOut" stdDeviation="2.0"/><feColorMatrix in="blurOut" result="blurOut2" type="matrix" values="0 0 0 0 0 0 0 0 0 0 0 0 0 0 0 0 0 0 .4 0"/><feOffset dx="4.0" dy="4.0" in="blurOut2" result="blurOut3"/><feBlend in="SourceGraphic" in2="blurOut3" mode="normal"/></filter></defs><g><!--MD5=[9e086ae7cb173547c374b8a4e58c7dec]
class Projectile--><rect fill="#FEFECE" filter="url(#f1vffy9b60krtd)" height="73.6094" id="Projectile" style="stroke: #A80036; stroke-width: 1.5;" width="147" x="6" y="116"/><ellipse cx="46.65" cy="132" fill="#ADD1B2" rx="11" ry="11" style="stroke: #A80036; stroke-width: 1.0;"/><path d="M49.6188,137.6406 Q49.0406,137.9375 48.4,138.0781 Q47.7594,138.2344 47.0563,138.2344 Q44.5563,138.2344 43.2281,136.5938 Q41.9156,134.9375 41.9156,131.8125 Q41.9156,128.6875 43.2281,127.0313 Q44.5563,125.375 47.0563,125.375 Q47.7594,125.375 48.4,125.5313 Q49.0563,125.6875 49.6188,125.9844 L49.6188,128.7031 Q48.9938,128.125 48.4,127.8594 Q47.8063,127.5781 47.1813,127.5781 Q45.8375,127.5781 45.15,128.6563 Q44.4625,129.7188 44.4625,131.8125 Q44.4625,133.9063 45.15,134.9844 Q45.8375,136.0469 47.1813,136.0469 Q47.8063,136.0469 48.4,135.7813 Q48.9938,135.5 49.6188,134.9219 L49.6188,137.6406 Z "/><text fill="#000000" font-family="sans-serif" font-size="12" lengthAdjust="spacingAndGlyphs" textLength="58" x="66.35" y="136.1543">Projectile</text><line style="stroke: #A80036; stroke-width: 1.5;" x1="7" x2="152" y1="148" y2="148"/><ellipse cx="17" cy="159" fill="none" rx="3" ry="3" style="stroke: #038048; stroke-width: 1.0;"/><text fill="#000000" font-family="sans-serif" font-size="11" lengthAdjust="spacingAndGlyphs" textLength="111" x="26" y="162.2104">speed : float = 2.0f</text><ellipse cx="17" cy="171.8047" fill="none" rx="3" ry="3" style="stroke: #038048; stroke-width: 1.0;"/><text fill="#000000" font-family="sans-serif" font-size="11" lengthAdjust="spacingAndGlyphs" textLength="121" x="26" y="175.0151">lifeTime : float = 2.0f</text><line style="stroke: #A80036; stroke-width: 1.5;" x1="7" x2="152" y1="181.6094" y2="181.6094"/><!--MD5=[83b3cf3d23d77c6f1e1b5291a241bc2a]
class MonoBehaviour--><rect fill="#FEFECE" filter="url(#f1vffy9b60krtd)" height="48" id="MonoBehaviour" style="stroke: #A80036; stroke-width: 1.5;" width="128" x="15.5" y="8"/><ellipse cx="30.5" cy="24" fill="#ADD1B2" rx="11" ry="11" style="stroke: #A80036; stroke-width: 1.0;"/><path d="M33.4688,29.6406 Q32.8906,29.9375 32.25,30.0781 Q31.6094,30.2344 30.9063,30.2344 Q28.4063,30.2344 27.0781,28.5938 Q25.7656,26.9375 25.7656,23.8125 Q25.7656,20.6875 27.0781,19.0313 Q28.4063,17.375 30.9063,17.375 Q31.6094,17.375 32.25,17.5313 Q32.9063,17.6875 33.4688,17.9844 L33.4688,20.7031 Q32.8438,20.125 32.25,19.8594 Q31.6563,19.5781 31.0313,19.5781 Q29.6875,19.5781 29,20.6563 Q28.3125,21.7188 28.3125,23.8125 Q28.3125,25.9063 29,26.9844 Q29.6875,28.0469 31.0313,28.0469 Q31.6563,28.0469 32.25,27.7813 Q32.8438,27.5 33.4688,26.9219 L33.4688,29.6406 Z "/><text fill="#000000" font-family="sans-serif" font-size="12" lengthAdjust="spacingAndGlyphs" textLength="96" x="44.5" y="28.1543">MonoBehaviour</text><line style="stroke: #A80036; stroke-width: 1.5;" x1="16.5" x2="142.5" y1="40" y2="40"/><line style="stroke: #A80036; stroke-width: 1.5;" x1="16.5" x2="142.5" y1="48" y2="48"/><!--MD5=[5c67b0b4a5a0a047629d26b7321d5a29]
reverse link MonoBehaviour to Projectile--><path d="M79.5,76.43 C79.5,89.33 79.5,103.32 79.5,115.71 " fill="none" id="MonoBehaviour&lt;-Projectile" style="stroke: #A80036; stroke-width: 1.0;"/><polygon fill="none" points="72.5,76.23,79.5,56.23,86.5,76.23,72.5,76.23" style="stroke: #A80036; stroke-width: 1.0;"/><!--MD5=[f444bfb53f21b30b59c21da8e98f45cb]
@startuml
class Projectile {
    + speed : float = 2.0f
    + lifeTime : float = 2.0f
}
MonoBehaviour <|- - Projectile
@enduml

PlantUML version 1.2020.02(Sun Mar 01 10:22:07 GMT 2020)
(GPL source distribution)
Java Runtime: OpenJDK Runtime Environment
JVM: OpenJDK 64-Bit Server VM
Java Version: 11.0.9+11-Ubuntu-0ubuntu1
Operating System: Linux
Default Encoding: ANSI_X3.4-1968
Language: en
Country: US
--></g></svg>