<?xml version="1.0" encoding="UTF-8" standalone="no"?><svg xmlns="http://www.w3.org/2000/svg" xmlns:xlink="http://www.w3.org/1999/xlink" contentScriptType="application/ecmascript" contentStyleType="text/css" height="187px" preserveAspectRatio="none" style="width:281px;height:187px;" version="1.1" viewBox="0 0 281 187" width="281px" zoomAndPan="magnify"><defs><filter height="300%" id="f15xdsqq4j3ftv" width="300%" x="-1" y="-1"><feGaussianBlur result="blurOut" stdDeviation="2.0"/><feColorMatrix in="blurOut" result="blurOut2" type="matrix" values="0 0 0 0 0 0 0 0 0 0 0 0 0 0 0 0 0 0 .4 0"/><feOffset dx="4.0" dy="4.0" in="blurOut2" result="blurOut3"/><feBlend in="SourceGraphic" in2="blurOut3" mode="normal"/></filter></defs><g><!--MD5=[45a93b7ff797f159b275588ec6106981]
class Rotate--><rect fill="#FEFECE" filter="url(#f15xdsqq4j3ftv)" height="60.8047" id="Rotate" style="stroke: #A80036; stroke-width: 1.5;" width="264" x="6" y="116"/><ellipse cx="112.75" cy="132" fill="#ADD1B2" rx="11" ry="11" style="stroke: #A80036; stroke-width: 1.0;"/><path d="M115.7188,137.6406 Q115.1406,137.9375 114.5,138.0781 Q113.8594,138.2344 113.1563,138.2344 Q110.6563,138.2344 109.3281,136.5938 Q108.0156,134.9375 108.0156,131.8125 Q108.0156,128.6875 109.3281,127.0313 Q110.6563,125.375 113.1563,125.375 Q113.8594,125.375 114.5,125.5313 Q115.1563,125.6875 115.7188,125.9844 L115.7188,128.7031 Q115.0938,128.125 114.5,127.8594 Q113.9063,127.5781 113.2813,127.5781 Q111.9375,127.5781 111.25,128.6563 Q110.5625,129.7188 110.5625,131.8125 Q110.5625,133.9063 111.25,134.9844 Q111.9375,136.0469 113.2813,136.0469 Q113.9063,136.0469 114.5,135.7813 Q115.0938,135.5 115.7188,134.9219 L115.7188,137.6406 Z "/><text fill="#000000" font-family="sans-serif" font-size="12" lengthAdjust="spacingAndGlyphs" textLength="42" x="133.25" y="136.1543">Rotate</text><line style="stroke: #A80036; stroke-width: 1.5;" x1="7" x2="269" y1="148" y2="148"/><line style="stroke: #A80036; stroke-width: 1.5;" x1="7" x2="269" y1="156" y2="156"/><ellipse cx="17" cy="167" fill="#84BE84" rx="3" ry="3" style="stroke: #038048; stroke-width: 1.0;"/><text fill="#000000" font-family="sans-serif" font-size="11" lengthAdjust="spacingAndGlyphs" textLength="238" x="26" y="170.2104">RotateTowards(towards:Transform) : void</text><!--MD5=[83b3cf3d23d77c6f1e1b5291a241bc2a]
class MonoBehaviour--><rect fill="#FEFECE" filter="url(#f15xdsqq4j3ftv)" height="48" id="MonoBehaviour" style="stroke: #A80036; stroke-width: 1.5;" width="128" x="74" y="8"/><ellipse cx="89" cy="24" fill="#ADD1B2" rx="11" ry="11" style="stroke: #A80036; stroke-width: 1.0;"/><path d="M91.9688,29.6406 Q91.3906,29.9375 90.75,30.0781 Q90.1094,30.2344 89.4063,30.2344 Q86.9063,30.2344 85.5781,28.5938 Q84.2656,26.9375 84.2656,23.8125 Q84.2656,20.6875 85.5781,19.0313 Q86.9063,17.375 89.4063,17.375 Q90.1094,17.375 90.75,17.5313 Q91.4063,17.6875 91.9688,17.9844 L91.9688,20.7031 Q91.3438,20.125 90.75,19.8594 Q90.1563,19.5781 89.5313,19.5781 Q88.1875,19.5781 87.5,20.6563 Q86.8125,21.7188 86.8125,23.8125 Q86.8125,25.9063 87.5,26.9844 Q88.1875,28.0469 89.5313,28.0469 Q90.1563,28.0469 90.75,27.7813 Q91.3438,27.5 91.9688,26.9219 L91.9688,29.6406 Z "/><text fill="#000000" font-family="sans-serif" font-size="12" lengthAdjust="spacingAndGlyphs" textLength="96" x="103" y="28.1543">MonoBehaviour</text><line style="stroke: #A80036; stroke-width: 1.5;" x1="75" x2="201" y1="40" y2="40"/><line style="stroke: #A80036; stroke-width: 1.5;" x1="75" x2="201" y1="48" y2="48"/><!--MD5=[82111699a90b17b6087faaa60fa50d47]
reverse link MonoBehaviour to Rotate--><path d="M138,76.11 C138,89.31 138,103.54 138,115.65 " fill="none" id="MonoBehaviour&lt;-Rotate" style="stroke: #A80036; stroke-width: 1.0;"/><polygon fill="none" points="131,76.04,138,56.04,145,76.04,131,76.04" style="stroke: #A80036; stroke-width: 1.0;"/><!--MD5=[adf1bc59586e4576309c2d7d0c27579d]
@startuml
class Rotate {
    + RotateTowards(towards:Transform) : void
}
MonoBehaviour <|- - Rotate
@enduml

PlantUML version 1.2020.02(Sun Mar 01 10:22:07 GMT 2020)
(GPL source distribution)
Java Runtime: OpenJDK Runtime Environment
JVM: OpenJDK 64-Bit Server VM
Java Version: 11.0.9+11-Ubuntu-0ubuntu1
Operating System: Linux
Default Encoding: ANSI_X3.4-1968
Language: en
Country: US
--></g></svg>