<?xml version="1.0" encoding="UTF-8" standalone="no"?><svg xmlns="http://www.w3.org/2000/svg" xmlns:xlink="http://www.w3.org/1999/xlink" contentScriptType="application/ecmascript" contentStyleType="text/css" height="187px" preserveAspectRatio="none" style="width:226px;height:187px;" version="1.1" viewBox="0 0 226 187" width="226px" zoomAndPan="magnify"><defs><filter height="300%" id="f10aq2w5eg0p3k" width="300%" x="-1" y="-1"><feGaussianBlur result="blurOut" stdDeviation="2.0"/><feColorMatrix in="blurOut" result="blurOut2" type="matrix" values="0 0 0 0 0 0 0 0 0 0 0 0 0 0 0 0 0 0 .4 0"/><feOffset dx="4.0" dy="4.0" in="blurOut2" result="blurOut3"/><feBlend in="SourceGraphic" in2="blurOut3" mode="normal"/></filter></defs><g><!--MD5=[d5c76b986b2f885f478a45b3e2a835e6]
class Shooter--><rect fill="#FEFECE" filter="url(#f10aq2w5eg0p3k)" height="60.8047" id="Shooter" style="stroke: #A80036; stroke-width: 1.5;" width="209" x="6" y="116"/><ellipse cx="81.25" cy="132" fill="#ADD1B2" rx="11" ry="11" style="stroke: #A80036; stroke-width: 1.0;"/><path d="M84.2188,137.6406 Q83.6406,137.9375 83,138.0781 Q82.3594,138.2344 81.6563,138.2344 Q79.1563,138.2344 77.8281,136.5938 Q76.5156,134.9375 76.5156,131.8125 Q76.5156,128.6875 77.8281,127.0313 Q79.1563,125.375 81.6563,125.375 Q82.3594,125.375 83,125.5313 Q83.6563,125.6875 84.2188,125.9844 L84.2188,128.7031 Q83.5938,128.125 83,127.8594 Q82.4063,127.5781 81.7813,127.5781 Q80.4375,127.5781 79.75,128.6563 Q79.0625,129.7188 79.0625,131.8125 Q79.0625,133.9063 79.75,134.9844 Q80.4375,136.0469 81.7813,136.0469 Q82.4063,136.0469 83,135.7813 Q83.5938,135.5 84.2188,134.9219 L84.2188,137.6406 Z "/><text fill="#000000" font-family="sans-serif" font-size="12" lengthAdjust="spacingAndGlyphs" textLength="50" x="101.75" y="136.1543">Shooter</text><line style="stroke: #A80036; stroke-width: 1.5;" x1="7" x2="214" y1="148" y2="148"/><line style="stroke: #A80036; stroke-width: 1.5;" x1="7" x2="214" y1="156" y2="156"/><ellipse cx="17" cy="167" fill="#84BE84" rx="3" ry="3" style="stroke: #038048; stroke-width: 1.0;"/><text fill="#000000" font-family="sans-serif" font-size="11" lengthAdjust="spacingAndGlyphs" textLength="183" x="26" y="170.2104">Shoot(mousePos:Vector3) : void</text><!--MD5=[83b3cf3d23d77c6f1e1b5291a241bc2a]
class MonoBehaviour--><rect fill="#FEFECE" filter="url(#f10aq2w5eg0p3k)" height="48" id="MonoBehaviour" style="stroke: #A80036; stroke-width: 1.5;" width="128" x="46.5" y="8"/><ellipse cx="61.5" cy="24" fill="#ADD1B2" rx="11" ry="11" style="stroke: #A80036; stroke-width: 1.0;"/><path d="M64.4688,29.6406 Q63.8906,29.9375 63.25,30.0781 Q62.6094,30.2344 61.9063,30.2344 Q59.4063,30.2344 58.0781,28.5938 Q56.7656,26.9375 56.7656,23.8125 Q56.7656,20.6875 58.0781,19.0313 Q59.4063,17.375 61.9063,17.375 Q62.6094,17.375 63.25,17.5313 Q63.9063,17.6875 64.4688,17.9844 L64.4688,20.7031 Q63.8438,20.125 63.25,19.8594 Q62.6563,19.5781 62.0313,19.5781 Q60.6875,19.5781 60,20.6563 Q59.3125,21.7188 59.3125,23.8125 Q59.3125,25.9063 60,26.9844 Q60.6875,28.0469 62.0313,28.0469 Q62.6563,28.0469 63.25,27.7813 Q63.8438,27.5 64.4688,26.9219 L64.4688,29.6406 Z "/><text fill="#000000" font-family="sans-serif" font-size="12" lengthAdjust="spacingAndGlyphs" textLength="96" x="75.5" y="28.1543">MonoBehaviour</text><line style="stroke: #A80036; stroke-width: 1.5;" x1="47.5" x2="173.5" y1="40" y2="40"/><line style="stroke: #A80036; stroke-width: 1.5;" x1="47.5" x2="173.5" y1="48" y2="48"/><!--MD5=[b8792b4c0115ec5cab7fb55cbe327480]
reverse link MonoBehaviour to Shooter--><path d="M110.5,76.11 C110.5,89.31 110.5,103.54 110.5,115.65 " fill="none" id="MonoBehaviour&lt;-Shooter" style="stroke: #A80036; stroke-width: 1.0;"/><polygon fill="none" points="103.5,76.04,110.5,56.04,117.5,76.04,103.5,76.04" style="stroke: #A80036; stroke-width: 1.0;"/><!--MD5=[840ee7c89eebd9e22e4bad397a1ab953]
@startuml
class Shooter {
    + Shoot(mousePos:Vector3) : void
}
MonoBehaviour <|- - Shooter
@enduml

PlantUML version 1.2020.02(Sun Mar 01 10:22:07 GMT 2020)
(GPL source distribution)
Java Runtime: OpenJDK Runtime Environment
JVM: OpenJDK 64-Bit Server VM
Java Version: 11.0.9+11-Ubuntu-0ubuntu1
Operating System: Linux
Default Encoding: ANSI_X3.4-1968
Language: en
Country: US
--></g></svg>