<?xml version="1.0" encoding="UTF-8" standalone="no"?><svg xmlns="http://www.w3.org/2000/svg" xmlns:xlink="http://www.w3.org/1999/xlink" contentScriptType="application/ecmascript" contentStyleType="text/css" height="226px" preserveAspectRatio="none" style="width:265px;height:226px;" version="1.1" viewBox="0 0 265 226" width="265px" zoomAndPan="magnify"><defs><filter height="300%" id="f1bkjvwhlnch63" width="300%" x="-1" y="-1"><feGaussianBlur result="blurOut" stdDeviation="2.0"/><feColorMatrix in="blurOut" result="blurOut2" type="matrix" values="0 0 0 0 0 0 0 0 0 0 0 0 0 0 0 0 0 0 .4 0"/><feOffset dx="4.0" dy="4.0" in="blurOut2" result="blurOut3"/><feBlend in="SourceGraphic" in2="blurOut3" mode="normal"/></filter></defs><g><!--MD5=[82d9c97a467af7c0b2c072e754b85475]
class GameController--><rect fill="#FEFECE" filter="url(#f1bkjvwhlnch63)" height="99.2188" id="GameController" style="stroke: #A80036; stroke-width: 1.5;" width="186" x="6" y="116"/><ellipse cx="46.65" cy="132" fill="#ADD1B2" rx="11" ry="11" style="stroke: #A80036; stroke-width: 1.0;"/><path d="M49.6188,137.6406 Q49.0406,137.9375 48.4,138.0781 Q47.7594,138.2344 47.0563,138.2344 Q44.5563,138.2344 43.2281,136.5938 Q41.9156,134.9375 41.9156,131.8125 Q41.9156,128.6875 43.2281,127.0313 Q44.5563,125.375 47.0563,125.375 Q47.7594,125.375 48.4,125.5313 Q49.0563,125.6875 49.6188,125.9844 L49.6188,128.7031 Q48.9938,128.125 48.4,127.8594 Q47.8063,127.5781 47.1813,127.5781 Q45.8375,127.5781 45.15,128.6563 Q44.4625,129.7188 44.4625,131.8125 Q44.4625,133.9063 45.15,134.9844 Q45.8375,136.0469 47.1813,136.0469 Q47.8063,136.0469 48.4,135.7813 Q48.9938,135.5 49.6188,134.9219 L49.6188,137.6406 Z "/><text fill="#000000" font-family="sans-serif" font-size="12" lengthAdjust="spacingAndGlyphs" textLength="97" x="66.35" y="136.1543">GameController</text><line style="stroke: #A80036; stroke-width: 1.5;" x1="7" x2="191" y1="148" y2="148"/><ellipse cx="17" cy="159" fill="none" rx="3" ry="3" style="stroke: #038048; stroke-width: 1.0;"/><text fill="#000000" font-family="sans-serif" font-size="11" lengthAdjust="spacingAndGlyphs" textLength="95" x="26" y="162.2104">Score : int «get»</text><ellipse cx="17" cy="171.8047" fill="none" rx="3" ry="3" style="stroke: #038048; stroke-width: 1.0;"/><text fill="#000000" font-family="sans-serif" font-size="11" lengthAdjust="spacingAndGlyphs" textLength="120" x="26" y="175.0151">HighScore : int «get»</text><line style="stroke: #A80036; stroke-width: 1.5;" x1="7" x2="191" y1="181.6094" y2="181.6094"/><ellipse cx="17" cy="192.6094" fill="#84BE84" rx="3" ry="3" style="stroke: #038048; stroke-width: 1.0;"/><text fill="#000000" font-family="sans-serif" font-size="11" lengthAdjust="spacingAndGlyphs" textLength="160" x="26" y="195.8198">AddPoints(amount:int) : void</text><ellipse cx="17" cy="205.4141" fill="#84BE84" rx="3" ry="3" style="stroke: #038048; stroke-width: 1.0;"/><text fill="#000000" font-family="sans-serif" font-size="11" lengthAdjust="spacingAndGlyphs" textLength="108" x="26" y="208.6245">ResetScore() : void</text><!--MD5=[83b3cf3d23d77c6f1e1b5291a241bc2a]
class MonoBehaviour--><rect fill="#FEFECE" filter="url(#f1bkjvwhlnch63)" height="48" id="MonoBehaviour" style="stroke: #A80036; stroke-width: 1.5;" width="128" x="35" y="8"/><ellipse cx="50" cy="24" fill="#ADD1B2" rx="11" ry="11" style="stroke: #A80036; stroke-width: 1.0;"/><path d="M52.9688,29.6406 Q52.3906,29.9375 51.75,30.0781 Q51.1094,30.2344 50.4063,30.2344 Q47.9063,30.2344 46.5781,28.5938 Q45.2656,26.9375 45.2656,23.8125 Q45.2656,20.6875 46.5781,19.0313 Q47.9063,17.375 50.4063,17.375 Q51.1094,17.375 51.75,17.5313 Q52.4063,17.6875 52.9688,17.9844 L52.9688,20.7031 Q52.3438,20.125 51.75,19.8594 Q51.1563,19.5781 50.5313,19.5781 Q49.1875,19.5781 48.5,20.6563 Q47.8125,21.7188 47.8125,23.8125 Q47.8125,25.9063 48.5,26.9844 Q49.1875,28.0469 50.5313,28.0469 Q51.1563,28.0469 51.75,27.7813 Q52.3438,27.5 52.9688,26.9219 L52.9688,29.6406 Z "/><text fill="#000000" font-family="sans-serif" font-size="12" lengthAdjust="spacingAndGlyphs" textLength="96" x="64" y="28.1543">MonoBehaviour</text><line style="stroke: #A80036; stroke-width: 1.5;" x1="36" x2="162" y1="40" y2="40"/><line style="stroke: #A80036; stroke-width: 1.5;" x1="36" x2="162" y1="48" y2="48"/><!--MD5=[a0305418944ee2d262975993b8fd5dd0]
reverse link MonoBehaviour to GameController--><path d="M99,76.51 C99,89.14 99,103.01 99,115.93 " fill="none" id="MonoBehaviour&lt;-GameController" style="stroke: #A80036; stroke-width: 1.0;"/><polygon fill="none" points="92,76.21,99,56.21,106,76.21,92,76.21" style="stroke: #A80036; stroke-width: 1.0;"/><!--MD5=[2efa470cd113470c2efd15dd6fd51dfc]
link GameController to GameController--><path d="M192.2,141.48 C212.37,143.83 227,151.84 227,165.5 C227,177.99 214.78,185.75 197.27,188.79 " fill="none" id="GameController-&gt;GameController" style="stroke: #A80036; stroke-width: 1.0;"/><polygon fill="#A80036" points="192.2,189.52,201.6709,192.2223,197.1509,188.8209,200.5523,184.3009,192.2,189.52" style="stroke: #A80036; stroke-width: 1.0;"/><text fill="#000000" font-family="sans-serif" font-size="13" lengthAdjust="spacingAndGlyphs" textLength="54" x="199.9003" y="187.6425">Instance</text><!--MD5=[7144668f56f85a53b8617c1608aa8104]
@startuml
class GameController {
    + Score : int <<get>>
    + HighScore : int <<get>>
    + AddPoints(amount:int) : void
    + ResetScore() : void
}
MonoBehaviour <|- - GameController
GameController - -> "Instance" GameController
@enduml

PlantUML version 1.2020.02(Sun Mar 01 10:22:07 GMT 2020)
(GPL source distribution)
Java Runtime: OpenJDK Runtime Environment
JVM: OpenJDK 64-Bit Server VM
Java Version: 11.0.9+11-Ubuntu-0ubuntu1
Operating System: Linux
Default Encoding: ANSI_X3.4-1968
Language: en
Country: US
--></g></svg>